<svg width="421" height="101" viewBox="0 0 421 101" fill="none" xmlns="http://www.w3.org/2000/svg">
<rect x="0.5" y="0.661804" width="500" height="100" rx="40" fill="#F4B670"/>
<path d="M196.855 63.6618H193.223V39.5798L185.938 42.2556V38.9743L196.289 35.0876H196.855V63.6618ZM225.273 51.5329C225.273 55.7647 224.551 58.9092 223.105 60.9665C221.66 63.0238 219.401 64.0524 216.328 64.0524C213.294 64.0524 211.048 63.0498 209.59 61.0446C208.132 59.0264 207.376 56.0186 207.324 52.0212V47.197C207.324 43.0173 208.047 39.9118 209.492 37.8806C210.938 35.8493 213.203 34.8337 216.289 34.8337C219.349 34.8337 221.602 35.8168 223.047 37.7829C224.492 39.736 225.234 42.7569 225.273 46.8454V51.5329ZM221.66 46.5915C221.66 43.5316 221.23 41.305 220.371 39.9118C219.512 38.5056 218.151 37.8024 216.289 37.8024C214.44 37.8024 213.092 38.499 212.246 39.8923C211.4 41.2855 210.964 43.4274 210.938 46.3181V52.0993C210.938 55.1722 211.38 57.4444 212.266 58.9157C213.164 60.374 214.518 61.1032 216.328 61.1032C218.112 61.1032 219.434 60.4131 220.293 59.0329C221.165 57.6527 221.621 55.4782 221.66 52.5095V46.5915ZM250.039 46.1227L256.855 35.2243H261.27L252.285 49.3259L261.484 63.6618H257.031L250.039 52.5681L243.008 63.6618H238.574L247.793 49.3259L238.789 35.2243H243.184L250.039 46.1227ZM286.699 63.6618H283.066V39.5798L275.781 42.2556V38.9743L286.133 35.0876H286.699V63.6618ZM315.117 51.5329C315.117 55.7647 314.395 58.9092 312.949 60.9665C311.504 63.0238 309.245 64.0524 306.172 64.0524C303.138 64.0524 300.892 63.0498 299.434 61.0446C297.975 59.0264 297.22 56.0186 297.168 52.0212V47.197C297.168 43.0173 297.891 39.9118 299.336 37.8806C300.781 35.8493 303.047 34.8337 306.133 34.8337C309.193 34.8337 311.445 35.8168 312.891 37.7829C314.336 39.736 315.078 42.7569 315.117 46.8454V51.5329ZM311.504 46.5915C311.504 43.5316 311.074 41.305 310.215 39.9118C309.355 38.5056 307.995 37.8024 306.133 37.8024C304.284 37.8024 302.936 38.499 302.09 39.8923C301.243 41.2855 300.807 43.4274 300.781 46.3181V52.0993C300.781 55.1722 301.224 57.4444 302.109 58.9157C303.008 60.374 304.362 61.1032 306.172 61.1032C307.956 61.1032 309.277 60.4131 310.137 59.0329C311.009 57.6527 311.465 55.4782 311.504 52.5095V46.5915Z" fill="white"/>
</svg>
