<svg width="421" height="101" viewBox="0 0 421 101" fill="none" xmlns="http://www.w3.org/2000/svg">
<rect x="0.5" y="0.103455" width="500" height="100" rx="40" fill="#F4B670"/>
<path d="M196.855 63.1035H193.223V39.0214L185.938 41.6972V38.416L196.289 34.5292H196.855V63.1035ZM226.074 63.1035H207.441V60.5058L217.285 49.5683C218.743 47.9147 219.746 46.5735 220.293 45.5449C220.853 44.5032 221.133 43.429 221.133 42.3222C221.133 40.8378 220.684 39.6204 219.785 38.6699C218.887 37.7193 217.689 37.2441 216.191 37.2441C214.395 37.2441 212.995 37.7584 211.992 38.787C211.003 39.8027 210.508 41.2219 210.508 43.0449H206.895C206.895 40.4277 207.734 38.3118 209.414 36.6972C211.107 35.0826 213.366 34.2753 216.191 34.2753C218.835 34.2753 220.924 34.9719 222.461 36.3652C223.997 37.7454 224.766 39.5878 224.766 41.8925C224.766 44.692 222.982 48.0253 219.414 51.8925L211.797 60.1542H226.074V63.1035ZM250.039 45.5644L256.855 34.666H261.27L252.285 48.7675L261.484 63.1035H257.031L250.039 52.0097L243.008 63.1035H238.574L247.793 48.7675L238.789 34.666H243.184L250.039 45.5644ZM286.699 63.1035H283.066V39.0214L275.781 41.6972V38.416L286.133 34.5292H286.699V63.1035ZM315.918 63.1035H297.285V60.5058L307.129 49.5683C308.587 47.9147 309.59 46.5735 310.137 45.5449C310.697 44.5032 310.977 43.429 310.977 42.3222C310.977 40.8378 310.527 39.6204 309.629 38.6699C308.73 37.7193 307.533 37.2441 306.035 37.2441C304.238 37.2441 302.839 37.7584 301.836 38.787C300.846 39.8027 300.352 41.2219 300.352 43.0449H296.738C296.738 40.4277 297.578 38.3118 299.258 36.6972C300.951 35.0826 303.21 34.2753 306.035 34.2753C308.678 34.2753 310.768 34.9719 312.305 36.3652C313.841 37.7454 314.609 39.5878 314.609 41.8925C314.609 44.692 312.826 48.0253 309.258 51.8925L301.641 60.1542H315.918V63.1035Z" fill="white"/>
</svg>
