<svg width="429" height="101" viewBox="0 0 429 101" fill="none" xmlns="http://www.w3.org/2000/svg">
<rect x="0.5" y="0.103455" width="500" height="100" rx="40" fill="#F4B670"/>
<path d="M196.855 63.1035H193.223V39.0214L185.938 41.6972V38.416L196.289 34.5292H196.855V63.1035ZM222.695 53.5527H226.641V56.5019H222.695V63.1035H219.062V56.5019H206.113V54.373L218.848 34.666H222.695V53.5527ZM210.215 53.5527H219.062V39.6074L218.633 40.3886L210.215 53.5527ZM250.039 45.5644L256.855 34.666H261.27L252.285 48.7675L261.484 63.1035H257.031L250.039 52.0097L243.008 63.1035H238.574L247.793 48.7675L238.789 34.666H243.184L250.039 45.5644ZM286.699 63.1035H283.066V39.0214L275.781 41.6972V38.416L286.133 34.5292H286.699V63.1035ZM312.539 53.5527H316.484V56.5019H312.539V63.1035H308.906V56.5019H295.957V54.373L308.691 34.666H312.539V53.5527ZM300.059 53.5527H308.906V39.6074L308.477 40.3886L300.059 53.5527Z" fill="white"/>
</svg>
