<svg width="500" height="101" viewBox="0 0 500 101" fill="none" xmlns="http://www.w3.org/2000/svg">
<rect y="0.733459" width="500" height="100" rx="40" fill="#F4B670"/>
<path d="M196.355 63.7335H192.723V39.6514L185.438 42.3272V39.046L195.789 35.1592H196.355V63.7335ZM221.121 35.2764V38.3428H220.457C217.645 38.3949 215.405 39.2283 213.738 40.8428C212.072 42.4574 211.108 44.7296 210.848 47.6592C212.345 45.9405 214.389 45.0811 216.98 45.0811C219.454 45.0811 221.427 45.9535 222.898 47.6983C224.383 49.4431 225.125 51.6957 225.125 54.4561C225.125 57.3858 224.324 59.7296 222.723 61.4874C221.134 63.2452 218.999 64.1241 216.316 64.1241C213.595 64.1241 211.388 63.0824 209.695 60.9991C208.003 58.9027 207.156 56.2074 207.156 52.9131V51.5264C207.156 46.2921 208.27 42.2947 210.496 39.5342C212.736 36.7608 216.062 35.3415 220.477 35.2764H221.121ZM216.375 48.0889C215.138 48.0889 213.999 48.46 212.957 49.2022C211.915 49.9444 211.193 50.8754 210.789 51.9952V53.3233C210.789 55.6671 211.316 57.5551 212.371 58.9874C213.426 60.4197 214.741 61.1358 216.316 61.1358C217.944 61.1358 219.22 60.5368 220.145 59.3389C221.082 58.141 221.551 56.572 221.551 54.6319C221.551 52.6788 221.076 51.1033 220.125 49.9053C219.188 48.6944 217.938 48.0889 216.375 48.0889ZM249.539 46.1944L256.355 35.296H260.77L251.785 49.3975L260.984 63.7335H256.531L249.539 52.6397L242.508 63.7335H238.074L247.293 49.3975L238.289 35.296H242.684L249.539 46.1944ZM286.199 63.7335H282.566V39.6514L275.281 42.3272V39.046L285.633 35.1592H286.199V63.7335ZM310.965 35.2764V38.3428H310.301C307.488 38.3949 305.249 39.2283 303.582 40.8428C301.915 42.4574 300.952 44.7296 300.691 47.6592C302.189 45.9405 304.233 45.0811 306.824 45.0811C309.298 45.0811 311.271 45.9535 312.742 47.6983C314.227 49.4431 314.969 51.6957 314.969 54.4561C314.969 57.3858 314.168 59.7296 312.566 61.4874C310.978 63.2452 308.842 64.1241 306.16 64.1241C303.439 64.1241 301.232 63.0824 299.539 60.9991C297.846 58.9027 297 56.2074 297 52.9131V51.5264C297 46.2921 298.113 42.2947 300.34 39.5342C302.579 36.7608 305.906 35.3415 310.32 35.2764H310.965ZM306.219 48.0889C304.982 48.0889 303.842 48.46 302.801 49.2022C301.759 49.9444 301.036 50.8754 300.633 51.9952V53.3233C300.633 55.6671 301.16 57.5551 302.215 58.9874C303.27 60.4197 304.585 61.1358 306.16 61.1358C307.788 61.1358 309.064 60.5368 309.988 59.3389C310.926 58.141 311.395 56.572 311.395 54.6319C311.395 52.6788 310.919 51.1033 309.969 49.9053C309.031 48.6944 307.781 48.0889 306.219 48.0889Z" fill="white"/>
</svg>
