<svg width="421" height="101" viewBox="0 0 421 101" fill="none" xmlns="http://www.w3.org/2000/svg">
<rect x="0.5" y="0.876709" width="500" height="100" rx="40" fill="#F4B670"/>
<path d="M224.688 42.8611C224.688 44.2804 224.31 45.5434 223.555 46.6501C222.812 47.7569 221.803 48.6228 220.527 49.2478C222.012 49.8858 223.184 50.8168 224.043 52.0408C224.915 53.2647 225.352 54.6514 225.352 56.2009C225.352 58.6619 224.518 60.6215 222.852 62.0798C221.198 63.5382 219.017 64.2673 216.309 64.2673C213.574 64.2673 211.38 63.5382 209.727 62.0798C208.086 60.6085 207.266 58.6488 207.266 56.2009C207.266 54.6645 207.682 53.2778 208.516 52.0408C209.362 50.8038 210.527 49.8663 212.012 49.2283C210.749 48.6033 209.753 47.7374 209.023 46.6306C208.294 45.5238 207.93 44.2673 207.93 42.8611C207.93 40.4653 208.698 38.5642 210.234 37.158C211.771 35.7517 213.796 35.0486 216.309 35.0486C218.809 35.0486 220.827 35.7517 222.363 37.158C223.913 38.5642 224.688 40.4653 224.688 42.8611ZM221.738 56.1228C221.738 54.5343 221.23 53.2387 220.215 52.2361C219.212 51.2335 217.897 50.7322 216.27 50.7322C214.642 50.7322 213.333 51.227 212.344 52.2166C211.367 53.2061 210.879 54.5082 210.879 56.1228C210.879 57.7374 211.354 59.0069 212.305 59.9314C213.268 60.8559 214.603 61.3181 216.309 61.3181C218.001 61.3181 219.329 60.8559 220.293 59.9314C221.257 58.9939 221.738 57.7244 221.738 56.1228ZM216.309 38.0173C214.889 38.0173 213.737 38.46 212.852 39.3455C211.979 40.2179 211.543 41.4093 211.543 42.9197C211.543 44.365 211.973 45.5369 212.832 46.4353C213.704 47.3207 214.863 47.7634 216.309 47.7634C217.754 47.7634 218.906 47.3207 219.766 46.4353C220.638 45.5369 221.074 44.365 221.074 42.9197C221.074 41.4744 220.625 40.296 219.727 39.3845C218.828 38.4731 217.689 38.0173 216.309 38.0173ZM250.039 46.3376L256.855 35.4392H261.27L252.285 49.5408L261.484 63.8767H257.031L250.039 52.783L243.008 63.8767H238.574L247.793 49.5408L238.789 35.4392H243.184L250.039 46.3376ZM292.07 42.8611C292.07 44.2804 291.693 45.5434 290.938 46.6501C290.195 47.7569 289.186 48.6228 287.91 49.2478C289.395 49.8858 290.566 50.8168 291.426 52.0408C292.298 53.2647 292.734 54.6514 292.734 56.2009C292.734 58.6619 291.901 60.6215 290.234 62.0798C288.581 63.5382 286.4 64.2673 283.691 64.2673C280.957 64.2673 278.763 63.5382 277.109 62.0798C275.469 60.6085 274.648 58.6488 274.648 56.2009C274.648 54.6645 275.065 53.2778 275.898 52.0408C276.745 50.8038 277.91 49.8663 279.395 49.2283C278.132 48.6033 277.135 47.7374 276.406 46.6306C275.677 45.5238 275.312 44.2673 275.312 42.8611C275.312 40.4653 276.081 38.5642 277.617 37.158C279.154 35.7517 281.178 35.0486 283.691 35.0486C286.191 35.0486 288.21 35.7517 289.746 37.158C291.296 38.5642 292.07 40.4653 292.07 42.8611ZM289.121 56.1228C289.121 54.5343 288.613 53.2387 287.598 52.2361C286.595 51.2335 285.28 50.7322 283.652 50.7322C282.025 50.7322 280.716 51.227 279.727 52.2166C278.75 53.2061 278.262 54.5082 278.262 56.1228C278.262 57.7374 278.737 59.0069 279.688 59.9314C280.651 60.8559 281.986 61.3181 283.691 61.3181C285.384 61.3181 286.712 60.8559 287.676 59.9314C288.639 58.9939 289.121 57.7244 289.121 56.1228ZM283.691 38.0173C282.272 38.0173 281.12 38.46 280.234 39.3455C279.362 40.2179 278.926 41.4093 278.926 42.9197C278.926 44.365 279.355 45.5369 280.215 46.4353C281.087 47.3207 282.246 47.7634 283.691 47.7634C285.137 47.7634 286.289 47.3207 287.148 46.4353C288.021 45.5369 288.457 44.365 288.457 42.9197C288.457 41.4744 288.008 40.296 287.109 39.3845C286.211 38.4731 285.072 38.0173 283.691 38.0173Z" fill="white"/>
</svg>
