<svg width="268" height="80" viewBox="0 0 268 80" fill="none" xmlns="http://www.w3.org/2000/svg">
<path d="M31.3632 18.9382H36.7872C39.0912 18.9382 42.4752 18.0982 42.4752 14.1862C42.4752 11.8102 40.9152 10.1782 38.6832 10.0102V9.96223C40.6992 9.55423 41.7312 8.16223 41.7312 6.43423C41.7312 2.59423 38.8512 1.94623 36.2592 1.94623H31.3632V18.9382ZM32.9472 3.38623H36.4512C38.4672 3.38623 40.1472 4.05823 40.1472 6.43423C40.1472 7.49023 39.5232 9.29023 36.2352 9.29023H32.9472V3.38623ZM32.9472 10.7302H36.8112C38.8272 10.7302 40.8912 11.7142 40.8912 14.2342C40.8912 15.4342 40.2912 17.4982 36.5712 17.4982H32.9472V10.7302ZM46.0723 18.9382H47.5123V12.8902C47.5123 10.7302 48.6403 9.00223 51.1363 9.00223C51.2803 9.00223 51.4723 9.02623 51.6883 9.09823L51.8563 7.68223C51.5683 7.61023 51.3043 7.56223 51.0163 7.56223C49.3603 7.56223 48.2083 8.49823 47.4883 9.79423C47.4403 9.57823 47.4163 8.66623 47.3923 7.85023H45.9523C45.9523 8.42623 46.0723 10.1542 46.0723 10.9702V18.9382ZM53.0187 13.3942C53.0187 16.7782 55.4427 19.2262 58.8507 19.2262C62.2587 19.2262 64.6827 16.7782 64.6827 13.3942C64.6827 10.0102 62.2587 7.56223 58.8507 7.56223C55.4427 7.56223 53.0187 10.0102 53.0187 13.3942ZM54.4587 13.3942C54.4587 10.8982 56.1387 8.85823 58.8507 8.85823C61.5627 8.85823 63.2427 10.8982 63.2427 13.3942C63.2427 15.8902 61.5627 17.9302 58.8507 17.9302C56.1387 17.9302 54.4587 15.8902 54.4587 13.3942ZM77.2767 7.85023H75.8367V13.3942C75.8367 16.4422 74.1327 17.9302 71.9967 17.9302C69.7167 17.9302 69.2127 16.1782 69.2127 14.3782V7.85023H67.7727V14.4502C67.7727 16.8742 68.5407 19.2262 71.9967 19.2262C73.7967 19.2262 75.2127 18.2182 75.7887 16.9942H75.8607C75.9087 17.2102 75.9327 18.1222 75.9567 18.9382H77.3967C77.3967 18.3622 77.2767 16.6342 77.2767 15.8182V7.85023ZM92.3646 7.85023H90.9246V9.72223H90.8766C90.0366 8.40223 88.5726 7.56223 86.6766 7.56223C83.4126 7.56223 80.7486 10.1302 80.7486 13.2502C80.7486 16.3702 83.4126 18.9382 86.6766 18.9382C88.5726 18.9382 90.0366 18.0982 90.8766 16.7782H90.9246V18.3142C90.9246 19.5622 90.8526 23.4022 86.4606 23.4022C84.7326 23.4022 83.1006 22.7302 82.0926 21.3142L80.9646 22.3702C82.0926 23.8342 84.2286 24.6982 86.4606 24.6982C88.7166 24.6982 92.3646 23.7382 92.3646 18.2182V7.85023ZM90.9726 13.2502C90.9726 15.6742 89.0046 17.6422 86.5806 17.6422C84.1566 17.6422 82.1886 15.6742 82.1886 13.2502C82.1886 10.8262 84.1566 8.85823 86.5806 8.85823C89.0046 8.85823 90.9726 10.8262 90.9726 13.2502ZM95.9005 18.9382H97.3405V13.3942C97.3405 10.3462 99.0445 8.85823 101.18 8.85823C103.46 8.85823 103.964 10.6102 103.964 12.4102V18.9382H105.404V12.3382C105.404 9.91423 104.636 7.56223 101.18 7.56223C99.3805 7.56223 97.9645 8.57023 97.3885 9.79423H97.3405V0.794231H95.9005V18.9382ZM114.66 7.85023H111.492V4.65823H110.052V7.85023H107.652V9.14623H110.052V16.3702C110.052 17.9542 110.844 19.2262 112.908 19.2262C113.46 19.2262 114.252 19.0342 114.78 18.8422L114.66 17.5462C114.156 17.7622 113.58 17.9302 113.028 17.9302C112.068 17.9302 111.492 17.3542 111.492 16.3702V9.14623H114.66V7.85023ZM128.887 7.85023H125.719V4.65823H124.279V7.85023H121.879V9.14623H124.279V16.3702C124.279 17.9542 125.071 19.2262 127.135 19.2262C127.687 19.2262 128.479 19.0342 129.007 18.8422L128.887 17.5462C128.383 17.7622 127.807 17.9302 127.255 17.9302C126.295 17.9302 125.719 17.3542 125.719 16.3702V9.14623H128.887V7.85023ZM130.831 13.3942C130.831 16.7782 133.255 19.2262 136.663 19.2262C140.071 19.2262 142.495 16.7782 142.495 13.3942C142.495 10.0102 140.071 7.56223 136.663 7.56223C133.255 7.56223 130.831 10.0102 130.831 13.3942ZM132.271 13.3942C132.271 10.8982 133.951 8.85823 136.663 8.85823C139.375 8.85823 141.055 10.8982 141.055 13.3942C141.055 15.8902 139.375 17.9302 136.663 17.9302C133.951 17.9302 132.271 15.8902 132.271 13.3942ZM160.772 7.85023H159.236L155.66 17.1862L151.988 7.85023H150.38L154.892 18.9862L153.884 21.5542C153.548 22.4182 153.092 23.4022 152.036 23.4022C151.604 23.4022 151.148 23.2582 150.74 23.1382L150.596 24.4822C151.052 24.6022 151.532 24.6982 152.012 24.6982C153.596 24.6982 154.508 23.7862 155.06 22.3702L160.772 7.85023ZM162.425 13.3942C162.425 16.7782 164.849 19.2262 168.257 19.2262C171.665 19.2262 174.089 16.7782 174.089 13.3942C174.089 10.0102 171.665 7.56223 168.257 7.56223C164.849 7.56223 162.425 10.0102 162.425 13.3942ZM163.865 13.3942C163.865 10.8982 165.545 8.85823 168.257 8.85823C170.969 8.85823 172.649 10.8982 172.649 13.3942C172.649 15.8902 170.969 17.9302 168.257 17.9302C165.545 17.9302 163.865 15.8902 163.865 13.3942ZM186.683 7.85023H185.243V13.3942C185.243 16.4422 183.539 17.9302 181.403 17.9302C179.123 17.9302 178.619 16.1782 178.619 14.3782V7.85023H177.179V14.4502C177.179 16.8742 177.947 19.2262 181.403 19.2262C183.203 19.2262 184.619 18.2182 185.195 16.9942H185.267C185.315 17.2102 185.339 18.1222 185.363 18.9382H186.803C186.803 18.3622 186.683 16.6342 186.683 15.8182V7.85023ZM196.557 18.9382H197.997V16.9942H198.045C198.933 18.5302 200.829 19.2262 202.485 19.2262C205.893 19.2262 208.317 16.7782 208.317 13.3942C208.317 10.0102 205.893 7.56223 202.485 7.56223C200.829 7.56223 198.933 8.25823 198.045 9.79423H197.997V0.794231H196.557V18.9382ZM197.853 13.3942C197.853 10.8982 199.869 8.85823 202.485 8.85823C205.197 8.85823 206.877 10.8982 206.877 13.3942C206.877 15.8902 205.197 17.9302 202.485 17.9302C199.869 17.9302 197.853 15.8902 197.853 13.3942ZM220.373 7.85023H218.837L215.261 17.1862L211.589 7.85023H209.981L214.493 18.9862L213.485 21.5542C213.149 22.4182 212.693 23.4022 211.637 23.4022C211.205 23.4022 210.749 23.2582 210.341 23.1382L210.197 24.4822C210.653 24.6022 211.133 24.6982 211.613 24.6982C213.197 24.6982 214.109 23.7862 214.661 22.3702L220.373 7.85023ZM222.698 8.85823C222.698 9.50623 223.202 10.0102 223.85 10.0102C224.498 10.0102 225.002 9.50623 225.002 8.85823C225.002 8.21023 224.498 7.70623 223.85 7.70623C223.202 7.70623 222.698 8.21023 222.698 8.85823ZM222.698 17.9302C222.698 18.5782 223.202 19.0822 223.85 19.0822C224.498 19.0822 225.002 18.5782 225.002 17.9302C225.002 17.2822 224.498 16.7782 223.85 16.7782C223.202 16.7782 222.698 17.2822 222.698 17.9302Z" fill="white"/>
<path d="M29.6857 71.3382C27.1857 75.1382 22.7857 76.8382 19.2357 76.8382C9.98574 76.8382 4.23574 70.0382 4.23574 61.2382C4.23574 52.4382 9.98574 45.6382 19.2357 45.6382C22.7857 45.6382 26.5357 47.1382 28.7357 50.4382L31.4357 48.1882C28.3357 44.2382 24.0357 42.6382 19.2357 42.6382C8.43574 42.6382 0.935742 50.4382 0.935742 61.2382C0.935742 72.0382 8.43574 79.8382 19.2357 79.8382C24.4357 79.8382 29.0357 77.9882 32.3857 73.3882L29.6857 71.3382ZM55.5408 63.5882C55.5408 57.7382 51.9408 55.2382 46.3408 55.2382C43.3408 55.2382 39.7408 56.3882 37.5408 58.4882L39.2908 60.5382C41.3408 58.7882 43.6408 57.9382 46.3408 57.9382C50.0408 57.9382 52.8408 59.5382 52.8408 63.5382V64.9382H49.3408C44.7908 64.9382 36.5408 65.6382 36.5408 72.6882C36.5408 77.5882 40.7408 79.5382 44.6908 79.5382C48.5908 79.5382 51.0908 78.1382 52.7908 75.1882H52.8908C52.8908 76.4882 52.9908 77.7882 53.1908 78.9382H55.9908C55.6408 76.2882 55.5408 73.7382 55.5408 69.2382V63.5882ZM52.8408 67.3382V68.8882C52.8408 72.7382 51.1908 76.8382 44.7908 76.8382C42.2908 76.8382 39.5408 75.3882 39.5408 72.5382C39.5408 68.5882 44.5408 67.3382 49.5408 67.3382H52.8408ZM60.9186 74.8382C62.7186 78.0382 66.2686 79.5382 70.2186 79.5382C74.6186 79.5382 78.5686 77.1382 78.5686 72.3882C78.5686 63.0382 64.8686 67.8882 64.8686 61.6382C64.8686 59.2382 67.6186 57.9382 69.7686 57.9382C72.4686 57.9382 74.0686 59.0882 75.2186 61.1882L77.9186 59.5882C76.4186 56.6382 73.5186 55.2382 69.7686 55.2382C65.9686 55.2382 61.8686 57.3882 61.8686 61.8882C61.8686 70.6882 75.5686 66.2382 75.5686 72.5882C75.5686 75.2382 72.8686 76.8382 70.2686 76.8382C67.5686 76.8382 64.8186 75.4882 63.5686 73.0382L60.9186 74.8382ZM96.1076 55.8382H89.5076V49.1882H86.5076V55.8382H81.5076V58.5382H86.5076V73.5882C86.5076 76.8882 88.1576 79.5382 92.4576 79.5382C93.6076 79.5382 95.2576 79.1382 96.3576 78.7382L96.1076 76.0382C95.0576 76.4882 93.8576 76.8382 92.7076 76.8382C90.7076 76.8382 89.5076 75.6382 89.5076 73.5882V58.5382H96.1076V55.8382ZM101.958 78.9382H104.958V41.1382H101.958V78.9382ZM131.67 72.7382C130.17 75.2382 126.97 76.8382 123.92 76.8382C116.92 76.8382 115.17 70.6382 115.17 68.1382H134.57V66.0382C134.57 60.6882 130.82 55.2382 123.72 55.2382C116.97 55.2382 112.17 60.4382 112.17 67.3382C112.17 74.4882 116.82 79.5382 123.87 79.5382C127.97 79.5382 131.52 78.0882 133.87 74.5882L131.67 72.7382ZM115.17 65.4382C115.17 64.2382 117.02 57.9382 123.57 57.9382C128.02 57.9382 131.57 61.3382 131.57 65.4382H115.17ZM155.091 78.9382H166.391C171.191 78.9382 178.241 77.1882 178.241 69.0382C178.241 64.0882 174.991 60.6882 170.341 60.3382V60.2382C174.541 59.3882 176.691 56.4882 176.691 52.8882C176.691 44.8882 170.691 43.5382 165.291 43.5382H155.091V78.9382ZM158.391 46.5382H165.691C169.891 46.5382 173.391 47.9382 173.391 52.8882C173.391 55.0882 172.091 58.8382 165.241 58.8382H158.391V46.5382ZM158.391 61.8382H166.441C170.641 61.8382 174.941 63.8882 174.941 69.1382C174.941 71.6382 173.691 75.9382 165.941 75.9382H158.391V61.8382ZM205.285 55.8382H202.285V67.3882C202.285 73.7382 198.735 76.8382 194.285 76.8382C189.535 76.8382 188.485 73.1882 188.485 69.4382V55.8382H185.485V69.5882C185.485 74.6382 187.085 79.5382 194.285 79.5382C198.035 79.5382 200.985 77.4382 202.185 74.8882H202.335C202.435 75.3382 202.485 77.2382 202.535 78.9382H205.535C205.535 77.7382 205.285 74.1382 205.285 72.4382V55.8382ZM224.819 55.8382H218.219V49.1882H215.219V55.8382H210.219V58.5382H215.219V73.5882C215.219 76.8882 216.869 79.5382 221.169 79.5382C222.319 79.5382 223.969 79.1382 225.069 78.7382L224.819 76.0382C223.769 76.4882 222.569 76.8382 221.419 76.8382C219.419 76.8382 218.219 75.6382 218.219 73.5882V58.5382H224.819V55.8382ZM241.469 55.8382H234.869V49.1882H231.869V55.8382H226.869V58.5382H231.869V73.5882C231.869 76.8882 233.519 79.5382 237.819 79.5382C238.969 79.5382 240.619 79.1382 241.719 78.7382L241.469 76.0382C240.419 76.4882 239.219 76.8382 238.069 76.8382C236.069 76.8382 234.869 75.6382 234.869 73.5882V58.5382H241.469V55.8382ZM265.019 72.7382C263.519 75.2382 260.319 76.8382 257.269 76.8382C250.269 76.8382 248.519 70.6382 248.519 68.1382H267.919V66.0382C267.919 60.6882 264.169 55.2382 257.069 55.2382C250.319 55.2382 245.519 60.4382 245.519 67.3382C245.519 74.4882 250.169 79.5382 257.219 79.5382C261.319 79.5382 264.869 78.0882 267.219 74.5882L265.019 72.7382ZM248.519 65.4382C248.519 64.2382 250.369 57.9382 256.919 57.9382C261.369 57.9382 264.919 61.3382 264.919 65.4382H248.519Z" fill="#892CDC"/>
</svg>
