<svg width="186" height="181" viewBox="0 0 186 181" fill="none" xmlns="http://www.w3.org/2000/svg">
<path d="M21.8936 61.4906C18.6936 59.8906 14.8936 60.4906 13.3936 60.9906L19.8936 67.4906L26.3936 74.4906L30.3936 74.9906L25.8936 79.9906L21.8936 98.4906L20.3936 106.991L23.8936 106.491L29.8936 103.491L32.8936 100.991L34.3936 96.9906L35.8936 90.4906L38.3936 83.4906L40.3936 78.9906L42.3936 75.9906L43.3936 76.4906L42.8936 81.9906L41.8936 86.4906V101.991L44.3936 106.491L47.3936 110.491L53.8936 114.491L42.3936 136.491L41.3936 138.991C41.5603 139.824 41.6936 141.991 40.8936 143.991C39.8936 146.491 35.3936 145.991 34.8936 146.491C34.4936 146.891 31.0603 147.658 29.3936 147.991C28.5603 148.158 26.2936 148.691 23.8936 149.491C21.4936 150.291 20.2269 152.824 19.8936 153.991C19.7269 155.158 19.4936 157.691 19.8936 158.491C20.2936 159.291 22.3936 161.491 23.3936 162.491L30.3936 161.491L37.8936 163.491L47.3936 165.491L65.8936 168.491L82.8936 166.491L77.8936 152.991L80.8936 146.491C81.5603 144.658 84.7936 141.691 86.3936 138.491C87.9936 135.291 90.8936 130.824 92.3936 129.491L94.3936 122.991L99.8936 114.991L107.394 109.491L120.894 107.991L132.894 110.991L141.394 119.491L145.894 109.491L153.894 103.491L164.394 102.491L176.394 107.991L172.394 100.991L161.394 89.4906L143.394 78.4906L115.894 76.4906L96.8936 81.9906L77.8936 89.4906C77.3936 89.4906 74.3936 86.9906 73.8936 85.9906C73.3936 84.9906 71.3936 82.1573 71.8936 80.9906L76.3936 67.9906L83.3936 55.9906L92.3936 45.4906V40.4906L79.3936 48.9906L71.8936 57.9906L65.3936 62.4906H53.8936C53.0936 62.4906 40.8936 66.8239 34.8936 68.9906C31.8936 67.1573 25.0936 63.0906 21.8936 61.4906Z" fill="#F4B670"/>
<path d="M11.8936 83.4906C11.0603 80.1573 9.39362 71.2906 9.39362 62.4906H13.3936L22.3936 68.9906L27.8936 76.4906L19.3936 95.9906L14.8936 90.4906L11.8936 83.4906Z" fill="#FFF7F1"/>
<path d="M42.8936 81.9906V76.4906H42.3936L40.3936 78.9906L37.8936 83.9906L33.8936 98.9906L31.8936 101.991C31.0603 102.657 29.0936 104.091 27.8936 104.491L23.3936 106.991L20.3936 105.991L9.39362 110.991L5.39362 122.491L9.39362 130.991L23.3936 138.491H36.3936L41.8936 136.491L45.8936 128.491L52.8936 114.991L45.8936 108.491L41.8936 101.991L40.8936 92.4906L42.8936 81.9906Z" fill="#FFF7F1"/>
<path d="M86.8936 50.9906L96.3936 39.9906L100.394 45.4906V53.9906L98.8936 75.9906L96.8936 80.9906C92.8936 82.9906 84.6936 87.7906 79.8936 88.9906C77.3936 89.4906 75.8936 88.9906 73.8936 87.4906C72.5742 86.5011 71.7269 83.3239 71.8936 81.9906L77.3936 65.4906L86.8936 50.9906Z" fill="#FFF7F1"/>
<path d="M128.894 109.491L141.894 119.491L143.894 114.491C145.227 111.324 148.494 104.691 150.894 103.491C153.894 101.991 156.894 102.491 162.394 101.991C166.794 101.591 171.894 104.491 173.894 105.991C175.061 107.324 177.994 110.991 180.394 114.991C182.794 118.991 183.394 127.657 183.394 131.491L180.394 152.991L182.394 161.991L179.394 170.491L169.394 173.491L161.394 165.491L156.394 167.991L152.394 169.491L145.894 167.991L143.394 165.491L140.394 167.991L136.394 169.491L131.894 170.491L130.394 172.991L126.894 177.491L118.394 176.491L110.894 171.991H90.3936L79.3936 158.491L81.3936 145.991C84.9097 136.95 87.3109 132.363 93.8936 126.491L101.394 115.991L106.894 111.491L117.394 108.491L128.894 109.491Z" fill="#FFF7F1"/>
<path d="M122.18 166.695C124.597 165.703 125.672 162.742 124.581 160.082C123.49 157.421 120.645 156.069 118.227 157.06C115.81 158.052 114.735 161.013 115.826 163.673C116.918 166.334 119.762 167.687 122.18 166.695Z" fill="#FFA2A2"/>
<path d="M171.757 162.778C174.174 161.786 175.249 158.825 174.158 156.165C173.067 153.504 170.222 152.152 167.804 153.143C165.387 154.135 164.312 157.096 165.403 159.756C166.495 162.417 169.339 163.77 171.757 162.778Z" fill="#FFA2A2"/>
<path d="M118.94 171.542C119.804 171.109 120.153 170.057 119.72 169.193C119.287 168.329 118.235 167.98 117.371 168.413C116.507 168.846 116.158 169.898 116.591 170.762C117.024 171.626 118.076 171.975 118.94 171.542Z" fill="#FFA2A2"/>
<path d="M123.637 173.444C124.501 173.011 124.85 171.959 124.417 171.095C123.984 170.231 122.932 169.882 122.068 170.315C121.204 170.748 120.855 171.8 121.288 172.664C121.721 173.528 122.773 173.877 123.637 173.444Z" fill="#FFA2A2"/>
<path d="M127.341 169.603C128.205 169.17 128.554 168.118 128.121 167.254C127.688 166.39 126.636 166.041 125.772 166.474C124.908 166.907 124.559 167.959 124.992 168.823C125.425 169.687 126.477 170.036 127.341 169.603Z" fill="#FFA2A2"/>
<path d="M168.163 167.244C169.027 166.811 169.376 165.759 168.943 164.895C168.51 164.031 167.458 163.682 166.594 164.115C165.73 164.548 165.381 165.6 165.814 166.464C166.247 167.328 167.299 167.677 168.163 167.244Z" fill="#FFA2A2"/>
<path d="M173.358 168.024C174.222 167.591 174.571 166.539 174.138 165.675C173.705 164.811 172.653 164.462 171.789 164.895C170.925 165.328 170.576 166.38 171.009 167.244C171.442 168.108 172.494 168.457 173.358 168.024Z" fill="#FFA2A2"/>
<path d="M177.178 164.895C178.042 164.462 178.391 163.41 177.958 162.546C177.525 161.682 176.473 161.333 175.609 161.766C174.745 162.199 174.396 163.251 174.829 164.115C175.262 164.979 176.314 165.328 177.178 164.895Z" fill="#FFA2A2"/>
<path d="M95.4057 37.6877C92.2336 38.1773 85.634 41.7539 80.7588 45.6924C77.0332 48.6728 72.1368 53.9312 68.2196 59.147C66.9209 60.8289 66.8358 60.914 66.1971 60.765C63.2166 60.1263 57.6602 60.0412 54.2752 60.5734C48.144 61.5314 42.2043 63.639 36.6479 66.8111C36.0731 67.1517 36.0518 67.1304 34.9448 66.066C32.7307 63.9158 30.5379 62.7449 25.4286 60.9992C20.4469 59.2748 17.3387 58.6787 13.5918 58.6574C10.9307 58.6361 10.5262 58.6787 9.75983 59.1045C6.28971 60.9779 5.50202 65.406 7.0987 74.1984C8.78053 83.4379 11.9739 90.2504 17.2323 95.7855C18.5309 97.1693 18.5309 97.1693 18.7012 98.7447C18.829 100.171 19.1909 102.449 19.5528 104.216C19.7018 104.855 19.7018 104.855 17.5942 105.791C14.9118 106.962 13.2725 107.495 8.16315 108.793C5.88522 109.389 3.60729 110.007 3.09635 110.198C1.15905 110.922 0.499084 112.285 0.499084 115.542C0.499084 121.141 2.11706 126.591 4.82077 130.167C8.97214 135.66 16.0614 139.471 23.3848 140.174C24.2151 140.259 25.1731 140.387 25.5137 140.45C26.5995 140.685 33.9442 140.578 35.3918 140.301C36.9459 140.003 39.1387 139.279 39.8413 138.832C40.0967 138.662 40.3735 138.556 40.4161 138.62C40.5225 138.726 40.1393 142.047 39.9264 142.835C39.7987 143.282 39.3942 143.495 37.2227 144.261C35.6686 144.793 33.412 145.389 31.4747 145.73C27.4723 146.433 24.0022 147.348 22.4694 148.114C19.4676 149.583 17.6793 152.585 17.7219 156.119C17.7645 159.802 19.5315 163.272 22.0223 164.55C24.3215 165.742 27.6852 165.933 29.5586 164.954L30.6231 164.422L31.943 165.039C33.4971 165.742 34.1784 165.784 37.6911 165.401L40.2883 165.124L41.2676 165.784C43.3965 167.189 50.1452 168.914 57.2557 169.851C66.7932 171.128 76.8629 170.851 82.0788 169.191L83.4838 168.744L84.8463 169.914C90.0409 174.385 95.3631 176.237 102.368 175.982C106.072 175.833 107.243 175.513 109.265 174.108L110.841 173.001L111.799 174.151C115.311 178.345 118.803 180.41 122.699 180.665C127.51 180.985 131.299 178.196 133.152 172.959L133.514 171.894H135.408C138.048 171.873 140.007 171.021 142.498 168.85L143.562 167.913L144.371 168.552C146.202 170 148.458 170.83 151.46 171.149C154.611 171.469 157.996 170.766 159.252 169.51L159.933 168.829L160.955 170.042C163.787 173.427 167.214 175.322 170.982 175.556C175.879 175.897 180.435 172.81 182.521 167.807C183.585 165.252 183.862 163.592 183.734 160.292C183.649 157.929 183.522 157.098 183.053 155.608C182.734 154.608 182.457 153.501 182.457 153.16C182.457 152.798 182.755 151.457 183.117 150.179C185.182 142.899 185.927 133.595 185.076 125.91C184.224 118.224 181.627 109.985 178.008 103.556C175.474 99.064 172.771 95.5513 168.704 91.5064C152.78 75.6461 127.574 70.2599 102.219 77.3492C100.473 77.8388 100.345 77.8388 100.345 77.4769C100.345 77.264 100.814 75.8164 101.367 74.2623C102.751 70.4515 103.028 69.3445 103.453 66.0873C103.709 64.1713 103.815 61.7656 103.837 58.2103C103.837 52.3133 103.517 49.9928 102.048 45.5221C101.218 42.9674 99.5784 39.4334 98.8971 38.667C98.1307 37.7941 96.8959 37.4535 95.4057 37.6877ZM97.5772 45.9052C98.3649 48.7367 98.6204 50.0566 98.8332 52.739C99.0248 55.017 98.8332 61.8295 98.4288 66.8324C98.0456 71.367 96.7256 78.7543 96.236 79.1375C96.087 79.2439 94.9373 79.7336 93.6387 80.2232C90.2538 81.5431 83.6754 84.8217 80.3331 86.8441C78.7577 87.8021 77.1184 88.8027 76.7139 89.0369C75.5217 89.7394 70.6252 93.4224 68.4112 95.2533C65.7288 97.5099 59.5549 103.663 57.3622 106.324C56.3829 107.495 54.9139 109.389 54.0623 110.518C53.2321 111.667 52.4444 112.583 52.3166 112.604C52.0399 112.604 48.6975 109.985 47.3776 108.687C45.5041 106.898 43.5668 103.258 42.9495 100.448C42.2682 97.1906 42.3959 92.358 43.3965 85.141C44.0565 80.2445 44.1416 79.542 44.1416 78.0943C44.1416 76.1357 43.7584 75.348 42.8004 75.348C41.587 75.348 40.1606 77.5408 37.8827 82.8418C36.6053 85.8435 35.6047 89.1008 34.5403 93.7631C33.3694 98.8724 32.8159 100.299 31.4747 101.661C30.8998 102.236 29.7502 103.109 28.92 103.556C27.3659 104.429 23.5764 105.791 22.7248 105.791C22.2778 105.791 22.2352 105.749 22.4481 105.217C22.5545 104.897 22.8313 103.599 23.0655 102.321C23.47 99.8943 23.917 98.8724 23.917 100.32C23.917 101.193 24.3854 102.47 24.9176 103.066C25.3008 103.514 26.4504 103.769 27.0891 103.556C27.7491 103.364 28.111 102.683 28.6006 100.874C29.1754 98.7447 29.1754 96.1262 28.6006 95.2107C27.8981 94.0398 26.0885 93.9972 24.8963 95.1043L24.279 95.6791L24.428 94.5082C24.9389 90.3142 27.2594 83.9488 29.5799 80.2871C35.2002 71.4521 47.3776 65.3422 61.8754 64.0435C63.387 63.9158 64.6643 63.8519 64.7069 63.9158C64.7495 63.9584 64.3663 64.9164 63.834 66.0234C62.6418 68.4504 62.3864 70.0683 63.025 70.856C63.387 71.2818 63.4934 71.3244 63.8979 71.1115C64.1747 70.9625 64.9198 70.0258 65.5584 69.0039C68.177 64.9377 70.5188 61.574 72.1581 59.509C75.7346 55.0808 80.1627 50.6527 83.6967 48.0341C85.7618 46.4801 90.3176 43.6486 90.7434 43.6273C90.8924 43.6273 90.2325 44.5002 89.2532 45.5433C86.5707 48.4386 85.3573 49.865 83.3135 52.59C80.0563 56.9543 78.268 60.2754 75.5856 67.0453C72.8606 73.9217 72.0516 76.5828 71.5194 80.1381C71.2213 82.1818 71.3278 82.7992 72.009 82.7992C72.5838 82.7992 72.7754 82.4586 73.3077 80.4574C74.6276 75.4758 77.7571 68.4078 81.142 62.7875C84.5483 57.1033 87.3797 53.1435 91.9995 47.6297C93.4897 45.8414 95.0012 43.9892 95.3418 43.5209C95.7038 43.0525 96.0657 42.6054 96.1934 42.5203C96.4489 42.3287 96.8321 43.2441 97.5772 45.9052ZM18.7225 63.4261C22.2565 64.15 27.6852 65.9383 30.5805 67.3008C32.0707 68.0246 33.2842 68.6633 33.2842 68.7271C33.2842 68.8123 32.3688 69.6213 31.2405 70.558C30.1122 71.4734 28.9413 72.5592 28.6219 72.9424C28.3239 73.3256 27.962 73.6449 27.8342 73.6449C27.7065 73.6449 27.1317 73.0488 26.5569 72.3037C24.2577 69.3871 18.8289 64.448 16.9555 63.5752C16.6788 63.4474 16.4659 63.2771 16.4659 63.1707C16.4659 62.9578 16.2956 62.9365 18.7225 63.4261ZM16.8065 67.684C20.2127 70.1748 23.6403 73.1127 25.0666 74.7945L26.0885 75.9867L25.0241 77.5408C22.4268 81.309 19.9786 87.5467 19.3399 92.0599C19.0844 93.7205 18.9354 93.8482 18.318 92.8902C16.3807 89.8033 13.677 82.714 12.2081 76.8808C10.9946 71.9844 10.4623 68.94 10.4198 66.6195C10.3772 63.4261 10.3772 63.4474 12.3145 64.6183C13.1873 65.1506 15.2098 66.5343 16.8065 67.684ZM41.6934 81.3515C40.5438 87.2273 40.3096 88.9517 40.1606 93.0605C39.969 98.4041 40.4373 101.406 41.9702 104.77C43.6094 108.367 45.9299 111.05 49.251 113.157C50.3155 113.817 51.167 114.456 51.167 114.563C51.167 114.69 50.9967 115.031 50.7625 115.329C48.0801 119.182 44.2481 127.08 42.2256 132.892C41.6508 134.532 41.5657 134.659 40.5864 135.213C38.0743 136.639 37.0098 136.916 33.8165 136.895C31.3043 136.895 27.7491 136.533 27.4723 136.256C27.3659 136.15 27.8129 135.788 28.4303 135.447C29.0477 135.085 30.0696 134.34 30.687 133.787C31.645 132.914 31.8153 132.68 31.7514 132.105C31.6663 131.168 31.0063 131.147 29.729 132.041C27.7278 133.489 24.2151 134.745 22.1713 134.745C19.6166 134.745 14.1454 131.913 11.0584 129.018C9.8237 127.847 8.58893 126.335 8.58893 125.995C8.58893 125.91 8.92956 125.654 9.33405 125.463C12.1655 124.121 14.2092 120.247 13.826 116.926C13.677 115.584 12.9957 113.69 12.3997 112.945C12.1442 112.625 11.9952 112.263 12.059 112.114C12.1229 111.965 12.8041 111.625 13.5918 111.348C15.4866 110.688 17.7219 109.581 19.276 108.559C20.1489 107.963 20.7663 107.707 21.2772 107.707C22.4268 107.707 24.9176 107.09 26.6846 106.366C28.6432 105.579 30.1973 104.578 31.8366 103.066C33.6248 101.406 34.3274 99.8092 35.7325 94.1463C37.1588 88.4195 37.8614 86.2906 39.4793 82.5224C41.076 78.882 42.0979 77.0511 42.3747 77.3492C42.4385 77.3918 42.1192 79.2013 41.6934 81.3515ZM133.13 79.691C143.711 81.2877 152.461 84.8429 160.253 90.6761C162.722 92.5283 166.873 96.4668 168.768 98.7447C170.258 100.576 172.26 103.301 172.451 103.812C172.536 104.024 171.834 103.748 170.578 103.066C168.151 101.768 165.341 100.81 162.935 100.448C160.678 100.129 157.038 100.32 154.654 100.895C148.863 102.3 144.094 107.154 141.838 113.945C141.476 115.031 141.135 115.946 141.114 115.989C141.071 116.01 140.326 115.35 139.474 114.477C135.898 110.858 130.98 108.367 124.402 106.813C122.656 106.409 121.762 106.345 117.802 106.345C113.736 106.324 113.012 106.388 111.309 106.813C108.967 107.409 105.22 109.198 103.219 110.709C99.5784 113.434 96.1082 117.884 93.66 122.908C91.6801 127.017 91.3182 128.145 91.3182 130.593C91.3182 132.105 91.4246 132.935 91.6588 133.467C92.0633 134.34 92.1059 134.276 92.5743 131.998C93.1916 128.975 94.469 126.335 97.4282 121.886C100.963 116.564 106.242 112.263 111.139 110.688C117.547 108.623 126.382 109.9 133.024 113.839C135.217 115.137 138.112 117.969 139.155 119.864C140.22 121.78 140.816 122.29 141.923 122.269C143.306 122.227 143.732 121.545 144.69 117.777C146.734 109.73 150.736 105.259 156.889 104.195C163.382 103.066 169.62 105.153 175.24 110.369C176.709 111.731 177.284 112.668 178.135 115.265C180.392 122.014 181.35 129.742 180.86 137.151C180.626 140.748 179.796 146.39 179.328 147.604L179.093 148.221L178.199 147.369C175.368 144.623 171.642 143.239 167.81 143.537C165.724 143.686 164.404 144.133 162.765 145.198C157.485 148.668 155.377 156.779 157.847 164.188C158.188 165.231 158.464 166.146 158.464 166.231C158.464 166.615 154.739 167.53 153.227 167.53C150.183 167.53 147.075 166.295 145.691 164.55C144.52 163.081 142.838 163.208 141.965 164.848C140.731 167.189 136.941 169.616 134.812 169.404L134.088 169.34L133.961 166.657C133.599 159.036 129.234 151.67 123.359 148.732L121.414 147.783L120.015 147.491H118.394C115.03 147.534 114.715 147.859 113.395 148.54C110.032 150.286 107.711 154.246 107.264 159.057C107.009 161.846 107.711 165.955 109.01 169.191C109.35 170.063 109.478 170.617 109.35 170.745C109.074 171.021 105.135 171.256 101.09 171.234C95.5122 171.213 92.2549 170.021 88.061 166.466C85.336 164.124 84.3993 162.761 82.4194 158.163C80.9504 154.757 80.5885 151.542 81.3975 148.987C81.8446 147.54 83.3135 144.942 84.4205 143.644C84.7825 143.197 85.0379 142.771 84.9528 142.707C84.6973 142.452 82.9303 143.261 81.8872 144.112C79.5666 145.943 77.9274 148.753 77.2674 152.032C76.5223 155.672 77.1823 159.27 79.3963 163.719L80.0989 165.146L79.4176 165.295C79.0344 165.359 75.6069 165.486 71.7961 165.55C63.3018 165.678 59.704 165.401 44.9932 163.464C43.9926 163.336 42.843 163.102 42.4385 162.953C42.034 162.783 40.8631 162.612 39.8625 162.548C36.6479 162.357 34.4551 161.612 32.9649 160.207C31.7514 159.057 31.0702 159.014 29.1967 160.058C27.3872 161.037 26.3866 161.165 24.7686 160.547C23.5551 160.079 23.0016 159.227 22.512 157.184C22.1926 155.821 22.1713 155.438 22.4055 154.586C22.7461 153.309 23.4487 152.394 24.6409 151.691C25.1731 151.372 27.7916 150.499 30.4528 149.732C37.3717 147.774 40.0329 146.731 43.6094 144.58C45.5467 143.431 48.2291 141.345 48.1227 141.068C47.9737 140.621 46.0364 140.812 44.5674 141.408C43.8223 141.706 43.1836 141.941 43.1411 141.898C43.0985 141.877 43.6094 140.216 44.2694 138.236C47.1434 129.486 50.4219 122.972 55.9997 114.946C58.2776 111.667 63.6637 105.579 66.9635 102.555C81.0143 89.6543 98.1946 81.5219 115.46 79.6058C116.567 79.4994 117.781 79.3504 118.122 79.3078C119.74 79.0736 131.001 79.3717 133.13 79.691ZM171.77 147.71C174.261 148.881 176.262 150.946 177.688 153.799C180.115 158.716 179.54 165.486 176.39 168.722C175.134 170.042 173.516 170.723 171.706 170.723C170.918 170.723 169.833 170.574 169.3 170.404C165.341 169.02 162.02 163.954 161.53 158.525C161.381 156.822 161.7 154.331 162.232 152.841C163.893 148.306 168.193 146.007 171.77 147.71ZM119.444 150.709C120.074 150.967 120.84 150.942 121.785 151.645C126.001 154.781 129.575 160.185 129.873 166.615C130.065 170.489 129.426 172.682 127.446 174.79C126.424 175.897 124.742 176.684 123.486 176.684C121.677 176.684 119.25 175.599 117.44 174.023C115.546 172.363 113.182 168.509 112.31 165.571C110.308 159.036 112.075 152.819 116.397 151.159C117.568 150.69 118.83 150.585 119.444 150.709Z" fill="#3F2410"/>
<path d="M54.6159 93.1457C53.7856 93.5715 53.3385 94.1463 52.4657 96.0197C51.3161 98.4467 51.6567 101.278 53.2747 102.939C54.552 104.216 56.0848 104.173 57.3622 102.79C58.4053 101.661 58.8311 100.171 58.8737 97.6803C58.895 94.5508 58.086 93.1031 56.1274 92.8902C55.6165 92.8264 55.063 92.9328 54.6159 93.1457Z" fill="#3F2410"/>
<mask id="path-16-inside-1" fill="white">
<path d="M51.4979 0.183861C50.8714 0.401237 50.443 1.02142 50.443 1.69913C50.443 1.9357 50.4174 2.05717 50.3791 2.0316C50.3407 2.00603 50.1553 1.99324 49.9699 1.99324C48.7551 1.99324 48.1669 3.44458 49.0492 4.27574C49.2602 4.47395 49.42 4.55706 49.6694 4.6146C50.0338 4.69132 50.2192 4.66575 50.5901 4.48034L50.8266 4.36525V5.16445V5.96365H49.7461H48.672L48.819 5.66315C49.0172 5.27314 49.0172 4.92149 48.8126 4.51231C48.3459 3.57884 47.0224 3.5213 46.4726 4.41C46.3447 4.60821 46.3192 4.73608 46.3192 5.13248V5.612L46.0442 5.58643C45.4752 5.54167 44.7911 5.97643 44.5417 6.53906C44.2796 7.12088 44.4267 7.86253 44.8742 8.31647C45.1811 8.61697 45.4304 8.72567 45.9036 8.76403L46.3192 8.7896V9.25633C46.3192 9.67191 46.3383 9.75503 46.511 10.0044C47.112 10.8547 48.3331 10.778 48.7999 9.87012C49.0045 9.45454 49.0236 9.11568 48.8446 8.71928C48.7743 8.56583 48.7167 8.43156 48.7167 8.41878C48.7167 8.40599 49.1899 8.3932 49.7717 8.3932H50.8266L50.8138 9.87012L50.7947 11.347L50.264 11.5005C48.6976 11.9544 47.3613 13.0541 46.5749 14.5502C46.4278 14.8379 46.236 15.2727 46.1593 15.522C46.0826 15.765 45.9867 16.0399 45.9547 16.1294C45.8588 16.3468 45.8141 18.0859 45.8908 18.3991C46.0506 19.0193 46.236 19.6011 46.3831 19.94C46.626 20.4834 47.1823 21.289 47.6362 21.7494C47.8728 21.9859 47.9879 22.1394 47.9175 22.1202C47.8472 22.101 47.502 22.0051 47.1503 21.9156C45.5775 21.5 43.6594 20.7775 42.0738 20.0231C41.5687 19.7801 41.0828 19.5819 40.9933 19.5819C40.6992 19.5819 40.3667 20.0423 40.1749 20.7136C40.1621 20.7584 39.9895 20.8351 39.7849 20.8926C39.5803 20.9502 38.9474 21.1548 38.3719 21.3402C36.1534 22.0818 34.3888 23.0537 33.0014 24.2876L32.5986 24.6457L31.9144 24.537C30.8723 24.3707 28.8775 24.3388 27.7522 24.4666C25.7127 24.7032 24.191 25.1444 22.3305 26.0395C19.7986 27.2542 17.6248 29.1915 15.9945 31.6786C15.7259 32.0942 15.3807 32.5929 15.2336 32.7847C15.0866 32.9829 14.9203 33.277 14.8628 33.4432C14.8053 33.6094 14.6582 33.9611 14.5431 34.2232C13.4434 36.6847 13.079 38.4238 12.7593 42.8226C12.6698 44.0182 12.5547 45.2329 12.4972 45.5207C12.3054 46.5436 11.7875 48.0525 11.3144 48.9924C11.2057 49.2034 11.1226 49.4079 11.1226 49.4591C11.1226 49.5039 11.2888 49.6125 11.4934 49.6957C12.0752 49.9322 13.5521 50.6547 13.5521 50.7058C13.5457 50.7314 13.4051 50.8145 13.2324 50.8977C12.5483 51.2173 11.9601 51.9782 11.8578 52.6687C11.7939 53.0587 11.9665 53.6021 12.2095 53.8131C12.5803 54.12 13.1365 54.0944 13.5521 53.7428C13.6608 53.6533 13.8462 53.372 13.9677 53.1226C14.1147 52.8157 14.2554 52.6239 14.4025 52.5216C15.1697 52.0101 16.5827 52.9436 18.3537 55.143C18.7693 55.6545 19.1401 56.0956 19.1785 56.1212C19.2104 56.1404 19.2424 56.3258 19.2424 56.524C19.2424 57.4447 20.1759 58.5316 21.3331 58.9663C21.787 59.139 22.4008 59.1517 22.6885 59.0047C22.8931 58.896 22.9123 58.896 23.2576 59.0367C23.9736 59.3116 24.3636 59.5609 24.7153 59.9446C25.0861 60.3537 25.5592 61.2105 25.7319 61.7795C26.0004 62.6874 26.0963 63.7487 25.9301 63.9917C25.8789 64.0684 25.8022 64.2602 25.7574 64.4264C25.6232 64.9571 25.9109 65.5517 26.3456 65.6476C26.4479 65.6732 26.5311 65.7116 26.5311 65.7307C26.5311 65.7563 26.5758 66.0057 26.6206 66.287C26.6717 66.5683 26.6909 66.8112 26.6653 66.8304C26.6142 66.8688 25.8278 68.8124 25.8278 68.9083C25.8278 68.9403 26.1666 69.3111 26.5758 69.7203L27.3303 70.4748L27.4262 70.9735C27.5157 71.4274 27.5157 71.5105 27.407 72.1051C27.343 72.4568 27.2855 72.9619 27.2855 73.224C27.2727 73.8314 27.4645 74.2853 27.944 74.7904C28.2445 75.1101 28.3021 75.1421 28.5514 75.1421H28.8327L28.6409 74.7648C28.2765 74.0552 28.4363 73.4478 29.1588 72.7125C31.7035 70.1295 40.0918 68.0196 49.2602 67.6616C60.5193 67.2204 72.0788 69.5157 75.0135 72.7764C75.672 73.5053 75.7807 74.1191 75.4099 75.027C75.3715 75.1229 75.4035 75.1421 75.6209 75.1421C75.851 75.1421 75.9086 75.1037 76.1771 74.8096C76.3434 74.6242 76.5543 74.3301 76.6439 74.1511C76.7909 73.8761 76.8101 73.7547 76.8165 73.224C76.8165 72.8723 76.7653 72.3673 76.695 72.0284C76.5863 71.4658 76.5799 71.421 76.6886 70.9415L76.7973 70.4428L77.5709 69.7075L78.3381 68.9659L77.9353 67.9493C77.718 67.3867 77.507 66.8944 77.475 66.8496C77.4367 66.8049 77.4494 66.5811 77.5006 66.2486C77.5773 65.7499 77.5965 65.7179 77.8203 65.5645C78.3509 65.2192 78.498 64.6055 78.1911 63.9981C78.044 63.6976 78.0377 63.6784 78.1144 63.0646C78.2678 61.8562 78.6386 60.9036 79.2844 60.0532C79.6233 59.6057 79.9557 59.3755 80.7038 59.0622L81.1321 58.8832L81.3943 58.9983C82.6154 59.5482 84.8404 57.9689 84.8404 56.556C84.8404 56.2299 84.8532 56.2043 85.4989 55.4051C87.059 53.4551 88.2226 52.4897 89.0985 52.4001C89.5844 52.349 89.8274 52.5216 90.1151 53.1226C90.3581 53.6277 90.601 53.8771 90.9718 53.9857C91.5217 54.152 92.0012 53.8771 92.1674 53.3016C92.2889 52.8669 92.2505 52.5472 91.9948 52.0165C91.7774 51.5626 91.3235 51.1214 90.8504 50.8977C90.6777 50.8145 90.5371 50.7314 90.5307 50.7058C90.5307 50.6547 92.0076 49.9322 92.5958 49.6957C92.794 49.6125 92.9602 49.5039 92.9602 49.4591C92.9602 49.4079 92.8771 49.2034 92.7684 48.9924C92.2953 48.0525 91.7774 46.5436 91.5856 45.5207C91.5281 45.2329 91.413 44.0182 91.3235 42.8226C91.0038 38.4238 90.6394 36.6847 89.5397 34.2232C89.4246 33.9611 89.2775 33.6094 89.22 33.4432C89.1625 33.277 88.9962 32.9829 88.8492 32.7847C88.7021 32.5929 88.3569 32.0942 88.0883 31.6786C86.4644 29.2043 84.3161 27.2798 81.8035 26.065C79.9046 25.1507 78.3957 24.7096 76.3306 24.4666C75.2053 24.3388 73.2105 24.3707 72.1684 24.537L71.4842 24.6457L71.0814 24.2876C69.694 23.0537 67.9294 22.0818 65.7108 21.3402C65.1354 21.1548 64.5025 20.9502 64.2979 20.8926C64.0933 20.8351 63.9206 20.7584 63.9079 20.7136C63.7161 20.0423 63.3836 19.5819 63.0831 19.5819C63 19.5819 62.5141 19.7801 62.009 20.0231C60.4489 20.7712 58.5117 21.4936 56.9325 21.9156C56.5808 22.0051 56.2356 22.101 56.1652 22.1202C56.0949 22.1394 56.21 21.9859 56.4466 21.7494C57.3225 20.8607 57.9043 19.7226 58.192 18.3352C58.2687 17.9516 58.224 16.3532 58.1281 16.1294C58.0961 16.0399 58.0002 15.765 57.9235 15.522C57.3289 13.6231 55.7177 12.0503 53.8188 11.5005L53.2881 11.347L53.269 9.87012L53.2562 8.3932H54.3111C54.8929 8.3932 55.3661 8.40599 55.3661 8.41878C55.3661 8.43156 55.3021 8.57861 55.2318 8.74485C55.1231 8.98141 55.1039 9.13486 55.1295 9.39059C55.2574 10.6373 56.843 11.0337 57.5718 10.0044C57.7445 9.75503 57.7636 9.67191 57.7636 9.25633V8.7896L58.1792 8.76403C58.6523 8.72567 58.9017 8.61697 59.2086 8.31647C59.6561 7.86253 59.7968 7.11449 59.5411 6.53267C59.2917 5.97643 58.6012 5.54167 58.0386 5.58643L57.7636 5.612V5.13248C57.7636 4.72329 57.7381 4.6146 57.591 4.39082C57.022 3.51491 55.7369 3.58524 55.2701 4.51231C55.0656 4.92149 55.0656 5.27314 55.2638 5.66315L55.4108 5.96365H54.3367H53.2562V5.16445V4.36525L53.4991 4.48034C53.8636 4.66575 54.049 4.69132 54.4134 4.6146C54.6628 4.55706 54.8226 4.47395 55.0336 4.27574C55.9159 3.44458 55.3277 1.99324 54.1129 1.99324C53.9275 1.99324 53.7421 2.00603 53.7037 2.0316C53.6654 2.05717 53.6398 1.95488 53.6398 1.75668C53.6398 0.605835 52.5593 -0.193359 51.4979 0.183861ZM42.9114 24.5498C43.1543 25.0676 43.1671 25.1124 43.0584 25.1763C42.7835 25.3298 42.515 25.6175 42.451 25.8157C42.3935 25.9819 42.3296 26.0522 42.1761 26.0906C41.9971 26.1418 41.9396 26.1226 41.735 25.9372C41.4728 25.707 41.1723 25.6239 40.7759 25.675C40.469 25.7134 40.2389 25.8668 40.0343 26.1737C39.9128 26.3463 39.8425 26.3911 39.689 26.3783C39.5228 26.3719 39.3885 26.276 39.3821 26.1673C39.3821 26.1162 40.3348 25.3809 40.8846 25.0165C41.4984 24.6009 42.5214 23.9935 42.5981 23.9935C42.6237 23.9935 42.7707 24.2429 42.9114 24.5498ZM62.1177 24.3324C63.0959 24.9142 64.7007 26.0522 64.7007 26.1673C64.6943 26.3591 64.1956 26.4806 64.138 26.3016C64.1252 26.2632 64.0357 26.1354 63.9462 26.0267C63.5434 25.5471 62.7826 25.5216 62.3031 25.9691C62.1368 26.1226 62.0857 26.1418 61.9067 26.097C61.7532 26.0522 61.6893 25.9819 61.6318 25.8157C61.5678 25.6175 61.2993 25.3298 61.0244 25.1763C60.9157 25.1124 60.9285 25.0676 61.1714 24.5498C61.3121 24.2429 61.4591 23.9935 61.4847 23.9935C61.5167 23.9935 61.798 24.147 62.1177 24.3324ZM44.9254 29.9076C45.7437 32.5034 46.8562 36.8254 47.7002 40.7447C48.2053 43.0783 48.3395 43.788 48.3651 44.2164C48.3715 44.4529 48.4418 44.7982 48.5185 44.9836C48.6528 45.3225 49.062 47.33 49.0045 47.3812C48.9917 47.394 48.7871 47.3364 48.5569 47.2405C47.8408 46.9528 47.2462 47.0487 46.9521 47.4899C46.869 47.6178 46.8498 47.752 46.8754 48.1484C46.9074 48.6151 46.9777 48.8581 47.4444 50.1112C47.5595 50.4181 47.5915 50.6931 47.6298 51.4667C47.6682 52.317 47.6938 52.4705 47.828 52.739C48.0198 53.1034 48.3459 53.3016 48.7807 53.3016C49.1707 53.3016 49.5735 53.0651 49.9635 52.6111C50.2128 52.3106 50.5069 52.1252 50.7051 52.1252C50.8458 52.1252 50.4622 53.3784 50.0978 54.1264C49.4009 55.533 48.5761 56.1532 47.4892 56.0764C46.6069 56.0125 45.6734 55.3284 44.9381 54.2095C44.7335 53.8962 44.5609 53.6149 44.5609 53.5893C44.5609 53.5638 44.6313 53.5254 44.7208 53.5062C44.9445 53.4487 45.3154 53.1098 45.4752 52.8029C45.667 52.4385 45.667 51.8119 45.4752 51.4475C45.2067 50.936 44.7335 50.6547 44.1453 50.6547C43.5124 50.6547 43.0712 50.936 42.7963 51.5178C42.6173 51.8887 42.6045 52.2531 42.7388 52.6431C42.9242 53.161 43.4868 53.5893 44.0111 53.6085C44.1709 53.6149 44.2221 53.6405 44.1837 53.6852C44.1517 53.7236 44.0494 53.9794 43.9599 54.2543C43.5252 55.5522 42.7963 56.5048 41.9076 56.9268C40.9741 57.3743 39.9256 57.0227 38.8643 55.923C38.4487 55.4818 37.9116 54.7977 37.9116 54.7018C37.9116 54.6763 38.2569 54.5228 38.6852 54.3694C39.3118 54.1456 39.4461 54.0753 39.4141 53.9857C39.2607 53.6085 38.4231 51.2301 38.4231 51.1854C38.4231 51.1598 39.0561 50.904 39.8297 50.6291C40.6097 50.3542 41.2554 50.0985 41.2746 50.0729C41.3002 50.0217 39.9767 46.3071 39.9 46.2367C39.8808 46.2112 39.2159 46.4349 38.4231 46.7227C37.4321 47.0871 36.9718 47.2277 36.9398 47.1766C36.8567 47.0487 36.8822 46.8505 37.0549 46.4349C37.707 44.8302 38.8515 43.1806 40.5202 41.4416L41.2874 40.6424L40.8974 40.393C39.1456 39.2869 37.6559 37.8164 36.8247 36.397C35.7826 34.6132 35.5332 32.5929 36.1214 30.6812L36.2557 30.2464L36.4603 30.2848C36.927 30.3743 39.1392 30.3999 39.8425 30.3295C41.281 30.1697 42.7324 29.7925 43.9535 29.249C44.2732 29.1084 44.5545 28.9997 44.5865 29.0061C44.6121 29.0125 44.7655 29.4216 44.9254 29.9076ZM60.3211 29.3321C61.229 29.7094 62.2839 30.0163 63.326 30.2017C64.0166 30.3231 64.3938 30.3487 65.5638 30.3487C66.3374 30.3551 67.1622 30.3359 67.3988 30.304L67.8271 30.2592L67.9614 30.6876C68.5496 32.5929 68.3002 34.6132 67.2581 36.397C66.4269 37.8164 64.9372 39.2869 63.1854 40.393L62.7954 40.6424L63.5626 41.4416C65.2313 43.1806 66.3758 44.8302 67.0279 46.4349C67.2006 46.8505 67.2261 47.0487 67.143 47.1766C67.111 47.2277 66.6507 47.0871 65.6597 46.7227C64.8669 46.4349 64.202 46.2112 64.1828 46.2367C64.1061 46.3071 62.7826 50.0217 62.8082 50.0729C62.8273 50.0985 63.4731 50.3542 64.2531 50.6291C65.0267 50.904 65.6597 51.1598 65.6597 51.1854C65.6597 51.2301 64.8221 53.6085 64.6687 53.9857C64.6367 54.0689 64.771 54.1392 65.3848 54.363C65.8004 54.5164 66.1584 54.6571 66.184 54.6763C66.2479 54.7274 65.6086 55.5586 65.161 56.0125C64.2084 56.9843 63.2174 57.3232 62.3286 56.9907C61.4399 56.6519 60.5704 55.5777 60.1357 54.2926C60.0461 54.0241 59.9566 53.762 59.9375 53.7172C59.9119 53.6469 59.9566 53.6213 60.1037 53.6085C60.8134 53.551 61.4399 52.8605 61.4399 52.138C61.4399 51.5818 61.0691 50.9999 60.5832 50.7762C60.2699 50.6355 59.6689 50.6163 59.3748 50.7378C59.0679 50.8721 58.7674 51.147 58.6076 51.4475C58.4158 51.8119 58.4158 52.4385 58.6076 52.8029C58.7674 53.1098 59.1383 53.4487 59.362 53.5062C59.4515 53.5254 59.5219 53.5766 59.5219 53.6085C59.5219 53.6469 59.3684 53.9154 59.1766 54.2031C58.7163 54.8872 58.0002 55.565 57.4376 55.8399C57.0348 56.0381 56.9517 56.0573 56.421 56.0573C55.9223 56.0573 55.8008 56.0317 55.5259 55.8846C55.1679 55.6992 54.6819 55.2453 54.4134 54.8489C54.0106 54.2671 53.5631 53.1929 53.3904 52.3937C53.3393 52.1572 53.3457 52.1252 53.4544 52.1252C53.6718 52.1252 53.8764 52.2659 54.1129 52.5792C54.5541 53.1482 55.1167 53.4103 55.6154 53.2761C56.2548 53.1034 56.4018 52.8029 56.453 51.5178C56.4913 50.757 56.5297 50.4821 56.6384 50.1752C57.1371 48.8389 57.233 48.5001 57.2458 48.0653C57.2522 47.7137 57.2266 47.5794 57.1243 47.4323C56.8558 47.0295 56.2292 46.9656 55.5003 47.2597C55.251 47.3684 55.0464 47.4323 55.0464 47.4068C55.0464 47.183 55.4683 45.2713 55.5706 45.0411C55.6538 44.8493 55.7177 44.5105 55.7497 44.1013C55.9031 42.1385 58.2496 32.5417 59.4324 29.0508C59.4451 29.0061 59.4963 28.9805 59.5411 28.9997C59.5794 29.0189 59.9375 29.1723 60.3211 29.3321ZM29.5936 30.0163C29.4465 30.5341 29.21 32.0047 29.1205 33.0148C29.0693 33.6286 29.0054 35.1311 28.9862 36.3651C28.9478 38.7882 28.8903 39.6642 28.7049 40.457C28.4555 41.5311 27.9057 42.8226 27.3494 43.6346C27.2152 43.8392 27.0873 44.0437 27.0681 44.0949C27.0425 44.1652 27.3942 44.3698 28.4299 44.8941C29.7598 45.5654 31.4285 46.4861 32.1702 46.9656C32.5154 47.183 32.5218 47.1958 32.784 47.9119C32.931 48.3146 33.0269 48.6535 33.0014 48.6791C32.9758 48.6983 32.4131 48.9093 31.7418 49.1522C31.0769 49.3888 30.4375 49.6253 30.3224 49.6637L30.1242 49.7468L30.7508 51.4667C31.518 53.583 31.4989 53.519 31.3774 53.4231C31.3262 53.3784 31.1344 53.3144 30.9554 53.2761C30.3416 53.1418 29.6319 53.4807 29.3506 54.0369C28.8455 55.0407 29.5616 56.2171 30.6741 56.2171H31.013L30.9746 56.5815C30.6229 59.5737 28.999 60.9995 27.0106 60.0532C26.2497 59.6888 25.2076 58.7106 25.0925 58.2503C25.0286 57.9945 25.1884 57.937 25.7702 58.0201C26.8443 58.1671 27.3303 57.9881 27.6627 57.3232C27.8034 57.0291 27.8417 56.8629 27.8417 56.5368C27.8417 56.166 27.8162 56.0828 27.6052 55.7632C27.4709 55.5714 27.1576 55.2133 26.9019 54.964C26.1155 54.2159 25.6551 53.6789 25.0605 52.7901C23.7115 50.7954 23.1489 50.335 22.4072 50.6227C21.7806 50.8593 21.5633 51.4091 21.64 52.5536C21.6783 53.1226 21.6719 53.2185 21.6016 53.1738C21.1924 52.9308 20.2014 52.1636 20.2014 52.0932C20.2014 51.9334 20.7193 50.5204 21.039 49.798C21.3395 49.1266 22.1259 47.6817 22.6246 46.9081L22.8292 46.582L22.4775 45.8787C19.9393 40.8086 19.8114 36.4674 22.1195 33.4048C22.9059 32.3563 24.159 31.3525 25.3994 30.7707C26.5822 30.2145 28.1103 29.8308 29.1652 29.8181L29.6575 29.8117L29.5936 30.0163ZM76.0492 29.9395C78.4341 30.3487 80.6334 31.6338 81.9633 33.4048C84.2714 36.4674 84.1435 40.8086 81.6053 45.8787L81.2536 46.582L81.4582 46.9081C81.9569 47.6817 82.7433 49.1266 83.0438 49.798C83.3635 50.5204 83.8814 51.9334 83.8814 52.0932C83.8814 52.1636 82.8904 52.9308 82.4812 53.1738C82.4109 53.2185 82.4045 53.1226 82.4428 52.5536C82.5195 51.4091 82.3022 50.8593 81.6756 50.6227C80.9339 50.335 80.3713 50.7954 79.0159 52.7965C78.4149 53.6916 78.0313 54.1392 77.2129 54.9384C76.6247 55.501 76.2922 55.9741 76.2347 56.3322C76.1388 56.9268 76.516 57.7324 76.9955 57.9434C77.2832 58.0776 77.7627 58.1032 78.3829 58.0137C79.2716 57.8858 79.2332 58.3462 78.2806 59.2157C76.8101 60.5647 75.3779 60.7118 74.3102 59.6249C73.7348 59.0367 73.2425 57.8027 73.1146 56.6135L73.0698 56.2171H73.4151C74.5276 56.2171 75.2373 55.0407 74.7322 54.0369C74.4509 53.4807 73.7412 53.1418 73.1274 53.2761C72.9484 53.3144 72.7566 53.3784 72.7054 53.4231C72.5839 53.519 72.5648 53.583 73.332 51.4667L73.9585 49.7468L73.7603 49.6637C73.6453 49.6253 73.0123 49.3888 72.341 49.1522C71.676 48.9093 71.107 48.6983 71.0814 48.6791C71.0559 48.6535 71.1518 48.3146 71.2988 47.9119C71.561 47.1958 71.5674 47.183 71.9126 46.9656C72.6543 46.4861 74.323 45.5654 75.6528 44.8941C76.6886 44.3698 77.0403 44.1652 77.0147 44.0949C76.9955 44.0437 76.8676 43.8392 76.7334 43.6346C76.1771 42.8226 75.6273 41.5311 75.3779 40.457C75.1925 39.6642 75.135 38.7882 75.0966 36.3651C75.0774 35.1311 75.0135 33.6286 74.9623 33.0148C74.8728 32.0047 74.6363 30.5341 74.4892 30.0163L74.4253 29.8117H74.8664C75.103 29.8117 75.6401 29.8692 76.0492 29.9395ZM34.9961 54.0113C35.2647 54.7466 35.4948 55.3923 35.514 55.4307C35.5332 55.4882 35.7442 55.4371 36.2621 55.2517C37.3426 54.8553 37.2339 54.8425 37.1891 55.3604C37.0229 57.1186 36.115 58.2822 34.8491 58.3781C33.7814 58.4549 32.6753 57.7899 31.6907 56.492L31.3902 56.0956L31.6715 55.8335C32.2213 55.3284 32.3172 54.5612 31.9144 53.909C31.7994 53.73 31.7162 53.5766 31.7226 53.5638C31.8377 53.487 34.4399 52.5983 34.4719 52.6303C34.4974 52.6495 34.734 53.2697 34.9961 54.0113ZM71.1901 53.1418C71.7911 53.3592 72.3154 53.5446 72.3602 53.5638C72.4177 53.583 72.3985 53.6341 72.3026 53.73C71.9382 54.0944 71.8167 54.8553 72.0469 55.354C72.1108 55.4946 72.2834 55.7184 72.4305 55.8527L72.7054 56.0956L72.3346 56.5751C71.6505 57.4766 70.9344 58.0201 70.116 58.2694C68.4601 58.7809 67.0983 57.547 66.8937 55.3604C66.8489 54.8425 66.7402 54.8553 67.8207 55.2517C68.3386 55.4371 68.5496 55.4882 68.5688 55.4307C69.1186 53.9154 69.5726 52.6623 69.5981 52.6303C69.6109 52.5983 69.7324 52.6175 69.8667 52.6687C69.9945 52.7134 70.5955 52.9308 71.1901 53.1418Z"/>
</mask>
<path d="M51.4979 0.183861C50.8714 0.401237 50.443 1.02142 50.443 1.69913C50.443 1.9357 50.4174 2.05717 50.3791 2.0316C50.3407 2.00603 50.1553 1.99324 49.9699 1.99324C48.7551 1.99324 48.1669 3.44458 49.0492 4.27574C49.2602 4.47395 49.42 4.55706 49.6694 4.6146C50.0338 4.69132 50.2192 4.66575 50.5901 4.48034L50.8266 4.36525V5.16445V5.96365H49.7461H48.672L48.819 5.66315C49.0172 5.27314 49.0172 4.92149 48.8126 4.51231C48.3459 3.57884 47.0224 3.5213 46.4726 4.41C46.3447 4.60821 46.3192 4.73608 46.3192 5.13248V5.612L46.0442 5.58643C45.4752 5.54167 44.7911 5.97643 44.5417 6.53906C44.2796 7.12088 44.4267 7.86253 44.8742 8.31647C45.1811 8.61697 45.4304 8.72567 45.9036 8.76403L46.3192 8.7896V9.25633C46.3192 9.67191 46.3383 9.75503 46.511 10.0044C47.112 10.8547 48.3331 10.778 48.7999 9.87012C49.0045 9.45454 49.0236 9.11568 48.8446 8.71928C48.7743 8.56583 48.7167 8.43156 48.7167 8.41878C48.7167 8.40599 49.1899 8.3932 49.7717 8.3932H50.8266L50.8138 9.87012L50.7947 11.347L50.264 11.5005C48.6976 11.9544 47.3613 13.0541 46.5749 14.5502C46.4278 14.8379 46.236 15.2727 46.1593 15.522C46.0826 15.765 45.9867 16.0399 45.9547 16.1294C45.8588 16.3468 45.8141 18.0859 45.8908 18.3991C46.0506 19.0193 46.236 19.6011 46.3831 19.94C46.626 20.4834 47.1823 21.289 47.6362 21.7494C47.8728 21.9859 47.9879 22.1394 47.9175 22.1202C47.8472 22.101 47.502 22.0051 47.1503 21.9156C45.5775 21.5 43.6594 20.7775 42.0738 20.0231C41.5687 19.7801 41.0828 19.5819 40.9933 19.5819C40.6992 19.5819 40.3667 20.0423 40.1749 20.7136C40.1621 20.7584 39.9895 20.8351 39.7849 20.8926C39.5803 20.9502 38.9474 21.1548 38.3719 21.3402C36.1534 22.0818 34.3888 23.0537 33.0014 24.2876L32.5986 24.6457L31.9144 24.537C30.8723 24.3707 28.8775 24.3388 27.7522 24.4666C25.7127 24.7032 24.191 25.1444 22.3305 26.0395C19.7986 27.2542 17.6248 29.1915 15.9945 31.6786C15.7259 32.0942 15.3807 32.5929 15.2336 32.7847C15.0866 32.9829 14.9203 33.277 14.8628 33.4432C14.8053 33.6094 14.6582 33.9611 14.5431 34.2232C13.4434 36.6847 13.079 38.4238 12.7593 42.8226C12.6698 44.0182 12.5547 45.2329 12.4972 45.5207C12.3054 46.5436 11.7875 48.0525 11.3144 48.9924C11.2057 49.2034 11.1226 49.4079 11.1226 49.4591C11.1226 49.5039 11.2888 49.6125 11.4934 49.6957C12.0752 49.9322 13.5521 50.6547 13.5521 50.7058C13.5457 50.7314 13.4051 50.8145 13.2324 50.8977C12.5483 51.2173 11.9601 51.9782 11.8578 52.6687C11.7939 53.0587 11.9665 53.6021 12.2095 53.8131C12.5803 54.12 13.1365 54.0944 13.5521 53.7428C13.6608 53.6533 13.8462 53.372 13.9677 53.1226C14.1147 52.8157 14.2554 52.6239 14.4025 52.5216C15.1697 52.0101 16.5827 52.9436 18.3537 55.143C18.7693 55.6545 19.1401 56.0956 19.1785 56.1212C19.2104 56.1404 19.2424 56.3258 19.2424 56.524C19.2424 57.4447 20.1759 58.5316 21.3331 58.9663C21.787 59.139 22.4008 59.1517 22.6885 59.0047C22.8931 58.896 22.9123 58.896 23.2576 59.0367C23.9736 59.3116 24.3636 59.5609 24.7153 59.9446C25.0861 60.3537 25.5592 61.2105 25.7319 61.7795C26.0004 62.6874 26.0963 63.7487 25.9301 63.9917C25.8789 64.0684 25.8022 64.2602 25.7574 64.4264C25.6232 64.9571 25.9109 65.5517 26.3456 65.6476C26.4479 65.6732 26.5311 65.7116 26.5311 65.7307C26.5311 65.7563 26.5758 66.0057 26.6206 66.287C26.6717 66.5683 26.6909 66.8112 26.6653 66.8304C26.6142 66.8688 25.8278 68.8124 25.8278 68.9083C25.8278 68.9403 26.1666 69.3111 26.5758 69.7203L27.3303 70.4748L27.4262 70.9735C27.5157 71.4274 27.5157 71.5105 27.407 72.1051C27.343 72.4568 27.2855 72.9619 27.2855 73.224C27.2727 73.8314 27.4645 74.2853 27.944 74.7904C28.2445 75.1101 28.3021 75.1421 28.5514 75.1421H28.8327L28.6409 74.7648C28.2765 74.0552 28.4363 73.4478 29.1588 72.7125C31.7035 70.1295 40.0918 68.0196 49.2602 67.6616C60.5193 67.2204 72.0788 69.5157 75.0135 72.7764C75.672 73.5053 75.7807 74.1191 75.4099 75.027C75.3715 75.1229 75.4035 75.1421 75.6209 75.1421C75.851 75.1421 75.9086 75.1037 76.1771 74.8096C76.3434 74.6242 76.5543 74.3301 76.6439 74.1511C76.7909 73.8761 76.8101 73.7547 76.8165 73.224C76.8165 72.8723 76.7653 72.3673 76.695 72.0284C76.5863 71.4658 76.5799 71.421 76.6886 70.9415L76.7973 70.4428L77.5709 69.7075L78.3381 68.9659L77.9353 67.9493C77.718 67.3867 77.507 66.8944 77.475 66.8496C77.4367 66.8049 77.4494 66.5811 77.5006 66.2486C77.5773 65.7499 77.5965 65.7179 77.8203 65.5645C78.3509 65.2192 78.498 64.6055 78.1911 63.9981C78.044 63.6976 78.0377 63.6784 78.1144 63.0646C78.2678 61.8562 78.6386 60.9036 79.2844 60.0532C79.6233 59.6057 79.9557 59.3755 80.7038 59.0622L81.1321 58.8832L81.3943 58.9983C82.6154 59.5482 84.8404 57.9689 84.8404 56.556C84.8404 56.2299 84.8532 56.2043 85.4989 55.4051C87.059 53.4551 88.2226 52.4897 89.0985 52.4001C89.5844 52.349 89.8274 52.5216 90.1151 53.1226C90.3581 53.6277 90.601 53.8771 90.9718 53.9857C91.5217 54.152 92.0012 53.8771 92.1674 53.3016C92.2889 52.8669 92.2505 52.5472 91.9948 52.0165C91.7774 51.5626 91.3235 51.1214 90.8504 50.8977C90.6777 50.8145 90.5371 50.7314 90.5307 50.7058C90.5307 50.6547 92.0076 49.9322 92.5958 49.6957C92.794 49.6125 92.9602 49.5039 92.9602 49.4591C92.9602 49.4079 92.8771 49.2034 92.7684 48.9924C92.2953 48.0525 91.7774 46.5436 91.5856 45.5207C91.5281 45.2329 91.413 44.0182 91.3235 42.8226C91.0038 38.4238 90.6394 36.6847 89.5397 34.2232C89.4246 33.9611 89.2775 33.6094 89.22 33.4432C89.1625 33.277 88.9962 32.9829 88.8492 32.7847C88.7021 32.5929 88.3569 32.0942 88.0883 31.6786C86.4644 29.2043 84.3161 27.2798 81.8035 26.065C79.9046 25.1507 78.3957 24.7096 76.3306 24.4666C75.2053 24.3388 73.2105 24.3707 72.1684 24.537L71.4842 24.6457L71.0814 24.2876C69.694 23.0537 67.9294 22.0818 65.7108 21.3402C65.1354 21.1548 64.5025 20.9502 64.2979 20.8926C64.0933 20.8351 63.9206 20.7584 63.9079 20.7136C63.7161 20.0423 63.3836 19.5819 63.0831 19.5819C63 19.5819 62.5141 19.7801 62.009 20.0231C60.4489 20.7712 58.5117 21.4936 56.9325 21.9156C56.5808 22.0051 56.2356 22.101 56.1652 22.1202C56.0949 22.1394 56.21 21.9859 56.4466 21.7494C57.3225 20.8607 57.9043 19.7226 58.192 18.3352C58.2687 17.9516 58.224 16.3532 58.1281 16.1294C58.0961 16.0399 58.0002 15.765 57.9235 15.522C57.3289 13.6231 55.7177 12.0503 53.8188 11.5005L53.2881 11.347L53.269 9.87012L53.2562 8.3932H54.3111C54.8929 8.3932 55.3661 8.40599 55.3661 8.41878C55.3661 8.43156 55.3021 8.57861 55.2318 8.74485C55.1231 8.98141 55.1039 9.13486 55.1295 9.39059C55.2574 10.6373 56.843 11.0337 57.5718 10.0044C57.7445 9.75503 57.7636 9.67191 57.7636 9.25633V8.7896L58.1792 8.76403C58.6523 8.72567 58.9017 8.61697 59.2086 8.31647C59.6561 7.86253 59.7968 7.11449 59.5411 6.53267C59.2917 5.97643 58.6012 5.54167 58.0386 5.58643L57.7636 5.612V5.13248C57.7636 4.72329 57.7381 4.6146 57.591 4.39082C57.022 3.51491 55.7369 3.58524 55.2701 4.51231C55.0656 4.92149 55.0656 5.27314 55.2638 5.66315L55.4108 5.96365H54.3367H53.2562V5.16445V4.36525L53.4991 4.48034C53.8636 4.66575 54.049 4.69132 54.4134 4.6146C54.6628 4.55706 54.8226 4.47395 55.0336 4.27574C55.9159 3.44458 55.3277 1.99324 54.1129 1.99324C53.9275 1.99324 53.7421 2.00603 53.7037 2.0316C53.6654 2.05717 53.6398 1.95488 53.6398 1.75668C53.6398 0.605835 52.5593 -0.193359 51.4979 0.183861ZM42.9114 24.5498C43.1543 25.0676 43.1671 25.1124 43.0584 25.1763C42.7835 25.3298 42.515 25.6175 42.451 25.8157C42.3935 25.9819 42.3296 26.0522 42.1761 26.0906C41.9971 26.1418 41.9396 26.1226 41.735 25.9372C41.4728 25.707 41.1723 25.6239 40.7759 25.675C40.469 25.7134 40.2389 25.8668 40.0343 26.1737C39.9128 26.3463 39.8425 26.3911 39.689 26.3783C39.5228 26.3719 39.3885 26.276 39.3821 26.1673C39.3821 26.1162 40.3348 25.3809 40.8846 25.0165C41.4984 24.6009 42.5214 23.9935 42.5981 23.9935C42.6237 23.9935 42.7707 24.2429 42.9114 24.5498ZM62.1177 24.3324C63.0959 24.9142 64.7007 26.0522 64.7007 26.1673C64.6943 26.3591 64.1956 26.4806 64.138 26.3016C64.1252 26.2632 64.0357 26.1354 63.9462 26.0267C63.5434 25.5471 62.7826 25.5216 62.3031 25.9691C62.1368 26.1226 62.0857 26.1418 61.9067 26.097C61.7532 26.0522 61.6893 25.9819 61.6318 25.8157C61.5678 25.6175 61.2993 25.3298 61.0244 25.1763C60.9157 25.1124 60.9285 25.0676 61.1714 24.5498C61.3121 24.2429 61.4591 23.9935 61.4847 23.9935C61.5167 23.9935 61.798 24.147 62.1177 24.3324ZM44.9254 29.9076C45.7437 32.5034 46.8562 36.8254 47.7002 40.7447C48.2053 43.0783 48.3395 43.788 48.3651 44.2164C48.3715 44.4529 48.4418 44.7982 48.5185 44.9836C48.6528 45.3225 49.062 47.33 49.0045 47.3812C48.9917 47.394 48.7871 47.3364 48.5569 47.2405C47.8408 46.9528 47.2462 47.0487 46.9521 47.4899C46.869 47.6178 46.8498 47.752 46.8754 48.1484C46.9074 48.6151 46.9777 48.8581 47.4444 50.1112C47.5595 50.4181 47.5915 50.6931 47.6298 51.4667C47.6682 52.317 47.6938 52.4705 47.828 52.739C48.0198 53.1034 48.3459 53.3016 48.7807 53.3016C49.1707 53.3016 49.5735 53.0651 49.9635 52.6111C50.2128 52.3106 50.5069 52.1252 50.7051 52.1252C50.8458 52.1252 50.4622 53.3784 50.0978 54.1264C49.4009 55.533 48.5761 56.1532 47.4892 56.0764C46.6069 56.0125 45.6734 55.3284 44.9381 54.2095C44.7335 53.8962 44.5609 53.6149 44.5609 53.5893C44.5609 53.5638 44.6313 53.5254 44.7208 53.5062C44.9445 53.4487 45.3154 53.1098 45.4752 52.8029C45.667 52.4385 45.667 51.8119 45.4752 51.4475C45.2067 50.936 44.7335 50.6547 44.1453 50.6547C43.5124 50.6547 43.0712 50.936 42.7963 51.5178C42.6173 51.8887 42.6045 52.2531 42.7388 52.6431C42.9242 53.161 43.4868 53.5893 44.0111 53.6085C44.1709 53.6149 44.2221 53.6405 44.1837 53.6852C44.1517 53.7236 44.0494 53.9794 43.9599 54.2543C43.5252 55.5522 42.7963 56.5048 41.9076 56.9268C40.9741 57.3743 39.9256 57.0227 38.8643 55.923C38.4487 55.4818 37.9116 54.7977 37.9116 54.7018C37.9116 54.6763 38.2569 54.5228 38.6852 54.3694C39.3118 54.1456 39.4461 54.0753 39.4141 53.9857C39.2607 53.6085 38.4231 51.2301 38.4231 51.1854C38.4231 51.1598 39.0561 50.904 39.8297 50.6291C40.6097 50.3542 41.2554 50.0985 41.2746 50.0729C41.3002 50.0217 39.9767 46.3071 39.9 46.2367C39.8808 46.2112 39.2159 46.4349 38.4231 46.7227C37.4321 47.0871 36.9718 47.2277 36.9398 47.1766C36.8567 47.0487 36.8822 46.8505 37.0549 46.4349C37.707 44.8302 38.8515 43.1806 40.5202 41.4416L41.2874 40.6424L40.8974 40.393C39.1456 39.2869 37.6559 37.8164 36.8247 36.397C35.7826 34.6132 35.5332 32.5929 36.1214 30.6812L36.2557 30.2464L36.4603 30.2848C36.927 30.3743 39.1392 30.3999 39.8425 30.3295C41.281 30.1697 42.7324 29.7925 43.9535 29.249C44.2732 29.1084 44.5545 28.9997 44.5865 29.0061C44.6121 29.0125 44.7655 29.4216 44.9254 29.9076ZM60.3211 29.3321C61.229 29.7094 62.2839 30.0163 63.326 30.2017C64.0166 30.3231 64.3938 30.3487 65.5638 30.3487C66.3374 30.3551 67.1622 30.3359 67.3988 30.304L67.8271 30.2592L67.9614 30.6876C68.5496 32.5929 68.3002 34.6132 67.2581 36.397C66.4269 37.8164 64.9372 39.2869 63.1854 40.393L62.7954 40.6424L63.5626 41.4416C65.2313 43.1806 66.3758 44.8302 67.0279 46.4349C67.2006 46.8505 67.2261 47.0487 67.143 47.1766C67.111 47.2277 66.6507 47.0871 65.6597 46.7227C64.8669 46.4349 64.202 46.2112 64.1828 46.2367C64.1061 46.3071 62.7826 50.0217 62.8082 50.0729C62.8273 50.0985 63.4731 50.3542 64.2531 50.6291C65.0267 50.904 65.6597 51.1598 65.6597 51.1854C65.6597 51.2301 64.8221 53.6085 64.6687 53.9857C64.6367 54.0689 64.771 54.1392 65.3848 54.363C65.8004 54.5164 66.1584 54.6571 66.184 54.6763C66.2479 54.7274 65.6086 55.5586 65.161 56.0125C64.2084 56.9843 63.2174 57.3232 62.3286 56.9907C61.4399 56.6519 60.5704 55.5777 60.1357 54.2926C60.0461 54.0241 59.9566 53.762 59.9375 53.7172C59.9119 53.6469 59.9566 53.6213 60.1037 53.6085C60.8134 53.551 61.4399 52.8605 61.4399 52.138C61.4399 51.5818 61.0691 50.9999 60.5832 50.7762C60.2699 50.6355 59.6689 50.6163 59.3748 50.7378C59.0679 50.8721 58.7674 51.147 58.6076 51.4475C58.4158 51.8119 58.4158 52.4385 58.6076 52.8029C58.7674 53.1098 59.1383 53.4487 59.362 53.5062C59.4515 53.5254 59.5219 53.5766 59.5219 53.6085C59.5219 53.6469 59.3684 53.9154 59.1766 54.2031C58.7163 54.8872 58.0002 55.565 57.4376 55.8399C57.0348 56.0381 56.9517 56.0573 56.421 56.0573C55.9223 56.0573 55.8008 56.0317 55.5259 55.8846C55.1679 55.6992 54.6819 55.2453 54.4134 54.8489C54.0106 54.2671 53.5631 53.1929 53.3904 52.3937C53.3393 52.1572 53.3457 52.1252 53.4544 52.1252C53.6718 52.1252 53.8764 52.2659 54.1129 52.5792C54.5541 53.1482 55.1167 53.4103 55.6154 53.2761C56.2548 53.1034 56.4018 52.8029 56.453 51.5178C56.4913 50.757 56.5297 50.4821 56.6384 50.1752C57.1371 48.8389 57.233 48.5001 57.2458 48.0653C57.2522 47.7137 57.2266 47.5794 57.1243 47.4323C56.8558 47.0295 56.2292 46.9656 55.5003 47.2597C55.251 47.3684 55.0464 47.4323 55.0464 47.4068C55.0464 47.183 55.4683 45.2713 55.5706 45.0411C55.6538 44.8493 55.7177 44.5105 55.7497 44.1013C55.9031 42.1385 58.2496 32.5417 59.4324 29.0508C59.4451 29.0061 59.4963 28.9805 59.5411 28.9997C59.5794 29.0189 59.9375 29.1723 60.3211 29.3321ZM29.5936 30.0163C29.4465 30.5341 29.21 32.0047 29.1205 33.0148C29.0693 33.6286 29.0054 35.1311 28.9862 36.3651C28.9478 38.7882 28.8903 39.6642 28.7049 40.457C28.4555 41.5311 27.9057 42.8226 27.3494 43.6346C27.2152 43.8392 27.0873 44.0437 27.0681 44.0949C27.0425 44.1652 27.3942 44.3698 28.4299 44.8941C29.7598 45.5654 31.4285 46.4861 32.1702 46.9656C32.5154 47.183 32.5218 47.1958 32.784 47.9119C32.931 48.3146 33.0269 48.6535 33.0014 48.6791C32.9758 48.6983 32.4131 48.9093 31.7418 49.1522C31.0769 49.3888 30.4375 49.6253 30.3224 49.6637L30.1242 49.7468L30.7508 51.4667C31.518 53.583 31.4989 53.519 31.3774 53.4231C31.3262 53.3784 31.1344 53.3144 30.9554 53.2761C30.3416 53.1418 29.6319 53.4807 29.3506 54.0369C28.8455 55.0407 29.5616 56.2171 30.6741 56.2171H31.013L30.9746 56.5815C30.6229 59.5737 28.999 60.9995 27.0106 60.0532C26.2497 59.6888 25.2076 58.7106 25.0925 58.2503C25.0286 57.9945 25.1884 57.937 25.7702 58.0201C26.8443 58.1671 27.3303 57.9881 27.6627 57.3232C27.8034 57.0291 27.8417 56.8629 27.8417 56.5368C27.8417 56.166 27.8162 56.0828 27.6052 55.7632C27.4709 55.5714 27.1576 55.2133 26.9019 54.964C26.1155 54.2159 25.6551 53.6789 25.0605 52.7901C23.7115 50.7954 23.1489 50.335 22.4072 50.6227C21.7806 50.8593 21.5633 51.4091 21.64 52.5536C21.6783 53.1226 21.6719 53.2185 21.6016 53.1738C21.1924 52.9308 20.2014 52.1636 20.2014 52.0932C20.2014 51.9334 20.7193 50.5204 21.039 49.798C21.3395 49.1266 22.1259 47.6817 22.6246 46.9081L22.8292 46.582L22.4775 45.8787C19.9393 40.8086 19.8114 36.4674 22.1195 33.4048C22.9059 32.3563 24.159 31.3525 25.3994 30.7707C26.5822 30.2145 28.1103 29.8308 29.1652 29.8181L29.6575 29.8117L29.5936 30.0163ZM76.0492 29.9395C78.4341 30.3487 80.6334 31.6338 81.9633 33.4048C84.2714 36.4674 84.1435 40.8086 81.6053 45.8787L81.2536 46.582L81.4582 46.9081C81.9569 47.6817 82.7433 49.1266 83.0438 49.798C83.3635 50.5204 83.8814 51.9334 83.8814 52.0932C83.8814 52.1636 82.8904 52.9308 82.4812 53.1738C82.4109 53.2185 82.4045 53.1226 82.4428 52.5536C82.5195 51.4091 82.3022 50.8593 81.6756 50.6227C80.9339 50.335 80.3713 50.7954 79.0159 52.7965C78.4149 53.6916 78.0313 54.1392 77.2129 54.9384C76.6247 55.501 76.2922 55.9741 76.2347 56.3322C76.1388 56.9268 76.516 57.7324 76.9955 57.9434C77.2832 58.0776 77.7627 58.1032 78.3829 58.0137C79.2716 57.8858 79.2332 58.3462 78.2806 59.2157C76.8101 60.5647 75.3779 60.7118 74.3102 59.6249C73.7348 59.0367 73.2425 57.8027 73.1146 56.6135L73.0698 56.2171H73.4151C74.5276 56.2171 75.2373 55.0407 74.7322 54.0369C74.4509 53.4807 73.7412 53.1418 73.1274 53.2761C72.9484 53.3144 72.7566 53.3784 72.7054 53.4231C72.5839 53.519 72.5648 53.583 73.332 51.4667L73.9585 49.7468L73.7603 49.6637C73.6453 49.6253 73.0123 49.3888 72.341 49.1522C71.676 48.9093 71.107 48.6983 71.0814 48.6791C71.0559 48.6535 71.1518 48.3146 71.2988 47.9119C71.561 47.1958 71.5674 47.183 71.9126 46.9656C72.6543 46.4861 74.323 45.5654 75.6528 44.8941C76.6886 44.3698 77.0403 44.1652 77.0147 44.0949C76.9955 44.0437 76.8676 43.8392 76.7334 43.6346C76.1771 42.8226 75.6273 41.5311 75.3779 40.457C75.1925 39.6642 75.135 38.7882 75.0966 36.3651C75.0774 35.1311 75.0135 33.6286 74.9623 33.0148C74.8728 32.0047 74.6363 30.5341 74.4892 30.0163L74.4253 29.8117H74.8664C75.103 29.8117 75.6401 29.8692 76.0492 29.9395ZM34.9961 54.0113C35.2647 54.7466 35.4948 55.3923 35.514 55.4307C35.5332 55.4882 35.7442 55.4371 36.2621 55.2517C37.3426 54.8553 37.2339 54.8425 37.1891 55.3604C37.0229 57.1186 36.115 58.2822 34.8491 58.3781C33.7814 58.4549 32.6753 57.7899 31.6907 56.492L31.3902 56.0956L31.6715 55.8335C32.2213 55.3284 32.3172 54.5612 31.9144 53.909C31.7994 53.73 31.7162 53.5766 31.7226 53.5638C31.8377 53.487 34.4399 52.5983 34.4719 52.6303C34.4974 52.6495 34.734 53.2697 34.9961 54.0113ZM71.1901 53.1418C71.7911 53.3592 72.3154 53.5446 72.3602 53.5638C72.4177 53.583 72.3985 53.6341 72.3026 53.73C71.9382 54.0944 71.8167 54.8553 72.0469 55.354C72.1108 55.4946 72.2834 55.7184 72.4305 55.8527L72.7054 56.0956L72.3346 56.5751C71.6505 57.4766 70.9344 58.0201 70.116 58.2694C68.4601 58.7809 67.0983 57.547 66.8937 55.3604C66.8489 54.8425 66.7402 54.8553 67.8207 55.2517C68.3386 55.4371 68.5496 55.4882 68.5688 55.4307C69.1186 53.9154 69.5726 52.6623 69.5981 52.6303C69.6109 52.5983 69.7324 52.6175 69.8667 52.6687C69.9945 52.7134 70.5955 52.9308 71.1901 53.1418Z" fill="#F4B670" stroke="black" stroke-width="2" mask="url(#path-16-inside-1)"/>
</svg>
