<svg width="630" height="173" viewBox="0 0 630 173" fill="none" xmlns="http://www.w3.org/2000/svg">
<path d="M87.4784 149.937C82.1451 149.937 77.1118 148.904 72.3784 146.837C67.7118 144.704 63.5784 141.804 59.9784 138.137C56.3784 134.404 53.5451 130.137 51.4784 125.337C49.4118 120.471 48.3784 115.304 48.3784 109.837C48.3784 104.437 49.3784 99.3373 51.3784 94.5373C53.3784 89.6706 56.1451 85.4039 59.6784 81.7373C63.2784 78.0039 67.4451 75.1039 72.1784 73.0373C76.9118 70.904 82.0118 69.8373 87.4784 69.8373C96.8118 69.8373 105.045 72.804 112.178 78.7373C112.778 79.2039 113.078 79.8706 113.078 80.7373C113.078 81.5373 112.812 82.2706 112.278 82.9373C111.745 83.5373 111.012 83.8373 110.078 83.8373C109.345 83.8373 108.512 83.4373 107.578 82.6373C104.912 80.2373 101.878 78.5039 98.4784 77.4373C95.0784 76.3706 91.4118 75.8373 87.4784 75.8373C83.0118 75.8373 78.7784 76.7706 74.7784 78.6373C70.7784 80.4373 67.2451 82.9373 64.1784 86.1373C61.1118 89.2706 58.7118 92.8706 56.9784 96.9373C55.2451 101.004 54.3784 105.304 54.3784 109.837C54.3784 114.504 55.2451 118.904 56.9784 123.037C58.7118 127.171 61.0784 130.804 64.0784 133.937C67.1451 137.071 70.6784 139.537 74.6784 141.337C78.6784 143.071 82.9451 143.937 87.4784 143.937C95.3451 143.937 102.245 141.504 108.178 136.637C108.978 135.971 109.945 135.937 111.078 136.537C112.212 137.071 112.778 137.971 112.778 139.237C112.778 139.637 112.745 140.004 112.678 140.337C112.612 140.671 112.412 141.004 112.078 141.337C108.812 144.604 105.012 146.871 100.678 148.137C96.4118 149.337 92.0118 149.937 87.4784 149.937ZM149.035 149.537C143.701 149.537 138.901 148.337 134.635 145.937C130.435 143.471 127.101 140.137 124.635 135.937C122.235 131.671 121.035 126.904 121.035 121.637C121.035 116.304 122.235 111.537 124.635 107.337C127.101 103.071 130.435 99.7373 134.635 97.3373C138.901 94.8706 143.701 93.6373 149.035 93.6373C154.368 93.6373 159.135 94.8706 163.335 97.3373C167.535 99.7373 170.835 103.071 173.235 107.337C175.701 111.537 176.935 116.304 176.935 121.637C176.935 126.904 175.701 131.671 173.235 135.937C170.835 140.137 167.535 143.471 163.335 145.937C159.135 148.337 154.368 149.537 149.035 149.537ZM149.035 143.937C153.235 143.937 156.968 142.971 160.235 141.037C163.568 139.037 166.168 136.371 168.035 133.037C169.968 129.637 170.935 125.837 170.935 121.637C170.935 117.371 169.968 113.571 168.035 110.237C166.168 106.837 163.568 104.171 160.235 102.237C156.968 100.237 153.235 99.2373 149.035 99.2373C144.901 99.2373 141.168 100.237 137.835 102.237C134.501 104.171 131.868 106.837 129.935 110.237C128.001 113.571 127.035 117.371 127.035 121.637C127.035 125.837 128.001 129.637 129.935 133.037C131.868 136.371 134.501 139.037 137.835 141.037C141.168 142.971 144.901 143.937 149.035 143.937ZM194.906 148.937C194.039 148.937 193.306 148.671 192.706 148.137C192.172 147.537 191.906 146.804 191.906 145.937V97.2373C191.906 96.304 192.172 95.5706 192.706 95.0373C193.306 94.5039 194.039 94.2373 194.906 94.2373C195.839 94.2373 196.572 94.5039 197.106 95.0373C197.639 95.5706 197.906 96.304 197.906 97.2373V103.437C199.839 100.371 202.272 97.9706 205.206 96.2373C208.206 94.504 211.506 93.6373 215.106 93.6373C217.639 93.6373 219.606 93.9373 221.006 94.5373C222.406 95.1373 222.939 96.204 222.606 97.7373C222.406 98.7373 221.939 99.3373 221.206 99.5373C220.472 99.7373 219.572 99.7706 218.506 99.6373C217.506 99.4373 216.372 99.3373 215.106 99.3373C211.772 99.3373 208.806 100.037 206.206 101.437C203.606 102.837 201.572 104.771 200.106 107.237C198.639 109.637 197.906 112.404 197.906 115.537V145.937C197.906 146.804 197.639 147.537 197.106 148.137C196.572 148.671 195.839 148.937 194.906 148.937ZM256.75 149.537C251.416 149.537 246.616 148.337 242.35 145.937C238.15 143.471 234.816 140.137 232.35 135.937C229.95 131.671 228.75 126.904 228.75 121.637C228.75 116.304 229.95 111.537 232.35 107.337C234.816 103.071 238.15 99.7373 242.35 97.3373C246.616 94.8706 251.416 93.6373 256.75 93.6373C262.083 93.6373 266.85 94.8706 271.05 97.3373C275.25 99.7373 278.55 103.071 280.95 107.337C283.416 111.537 284.65 116.304 284.65 121.637C284.65 126.904 283.416 131.671 280.95 135.937C278.55 140.137 275.25 143.471 271.05 145.937C266.85 148.337 262.083 149.537 256.75 149.537ZM256.75 143.937C260.95 143.937 264.683 142.971 267.95 141.037C271.283 139.037 273.883 136.371 275.75 133.037C277.683 129.637 278.65 125.837 278.65 121.637C278.65 117.371 277.683 113.571 275.75 110.237C273.883 106.837 271.283 104.171 267.95 102.237C264.683 100.237 260.95 99.2373 256.75 99.2373C252.616 99.2373 248.883 100.237 245.55 102.237C242.216 104.171 239.583 106.837 237.65 110.237C235.716 113.571 234.75 117.371 234.75 121.637C234.75 125.837 235.716 129.637 237.65 133.037C239.583 136.371 242.216 139.037 245.55 141.037C248.883 142.971 252.616 143.937 256.75 143.937ZM302.621 148.937C301.754 148.937 301.021 148.671 300.421 148.137C299.887 147.537 299.621 146.804 299.621 145.937V97.2373C299.621 96.304 299.887 95.5706 300.421 95.0373C301.021 94.5039 301.754 94.2373 302.621 94.2373C303.554 94.2373 304.287 94.5039 304.821 95.0373C305.354 95.5706 305.621 96.304 305.621 97.2373V102.437C307.821 99.7039 310.554 97.5373 313.821 95.9373C317.154 94.3373 320.754 93.5373 324.621 93.5373C329.421 93.5373 333.721 94.5373 337.521 96.5373C341.387 98.4706 344.421 101.337 346.621 105.137C348.821 108.871 349.921 113.504 349.921 119.037V145.937C349.921 146.804 349.621 147.537 349.021 148.137C348.487 148.671 347.787 148.937 346.921 148.937C346.054 148.937 345.321 148.671 344.721 148.137C344.187 147.537 343.921 146.804 343.921 145.937V119.037C343.921 114.637 343.054 111.004 341.321 108.137C339.654 105.271 337.354 103.137 334.421 101.737C331.554 100.271 328.287 99.5373 324.621 99.5373C321.021 99.5373 317.787 100.237 314.921 101.637C312.054 102.971 309.787 104.837 308.121 107.237C306.454 109.637 305.621 112.337 305.621 115.337V145.937C305.621 146.804 305.354 147.537 304.821 148.137C304.287 148.671 303.554 148.937 302.621 148.937ZM391.906 149.537C386.572 149.537 381.772 148.337 377.506 145.937C373.306 143.471 369.972 140.137 367.506 135.937C365.106 131.671 363.906 126.904 363.906 121.637C363.906 116.304 365.106 111.537 367.506 107.337C369.972 103.071 373.306 99.7373 377.506 97.3373C381.772 94.8706 386.572 93.6373 391.906 93.6373C397.239 93.6373 402.006 94.8706 406.206 97.3373C410.406 99.7373 413.706 103.071 416.106 107.337C418.572 111.537 419.806 116.304 419.806 121.637V145.937C419.806 146.804 419.539 147.537 419.006 148.137C418.472 148.671 417.739 148.937 416.806 148.937C415.939 148.937 415.206 148.671 414.606 148.137C414.072 147.537 413.806 146.804 413.806 145.937V138.137C411.606 141.604 408.606 144.371 404.806 146.437C401.006 148.504 396.706 149.537 391.906 149.537ZM391.906 143.937C396.106 143.937 399.839 142.971 403.106 141.037C406.439 139.037 409.039 136.371 410.906 133.037C412.839 129.637 413.806 125.837 413.806 121.637C413.806 117.371 412.839 113.571 410.906 110.237C409.039 106.837 406.439 104.171 403.106 102.237C399.839 100.237 396.106 99.2373 391.906 99.2373C387.772 99.2373 384.039 100.237 380.706 102.237C377.372 104.171 374.739 106.837 372.806 110.237C370.872 113.571 369.906 117.371 369.906 121.637C369.906 125.837 370.872 129.637 372.806 133.037C374.739 136.371 377.372 139.037 380.706 141.037C384.039 142.971 387.772 143.937 391.906 143.937ZM457.177 148.937C453.51 148.871 450.244 148.037 447.377 146.437C444.51 144.771 442.277 142.504 440.677 139.637C439.077 136.704 438.277 133.404 438.277 129.737V101.637H430.477C429.677 101.637 429.01 101.404 428.477 100.937C428.01 100.404 427.777 99.7373 427.777 98.9373C427.777 98.1373 428.01 97.5039 428.477 97.0373C429.01 96.504 429.677 96.2373 430.477 96.2373H438.277V79.9373C438.277 79.0039 438.544 78.2706 439.077 77.7373C439.677 77.1373 440.41 76.8373 441.277 76.8373C442.21 76.8373 442.944 77.1373 443.477 77.7373C444.077 78.2706 444.377 79.0039 444.377 79.9373V96.2373H457.577C458.377 96.2373 459.01 96.504 459.477 97.0373C460.01 97.5039 460.277 98.1373 460.277 98.9373C460.277 99.7373 460.01 100.404 459.477 100.937C459.01 101.404 458.377 101.637 457.577 101.637H444.377V129.737C444.377 133.604 445.577 136.771 447.977 139.237C450.377 141.637 453.477 142.837 457.277 142.837H459.477C460.41 142.837 461.144 143.137 461.677 143.737C462.277 144.271 462.577 145.004 462.577 145.937C462.577 146.804 462.277 147.537 461.677 148.137C461.144 148.671 460.41 148.937 459.477 148.937H457.177ZM480.109 148.937C479.242 148.937 478.509 148.671 477.909 148.137C477.376 147.537 477.109 146.804 477.109 145.937V97.2373C477.109 96.304 477.376 95.5706 477.909 95.0373C478.509 94.5039 479.242 94.2373 480.109 94.2373C481.042 94.2373 481.776 94.5039 482.309 95.0373C482.842 95.5706 483.109 96.304 483.109 97.2373V145.937C483.109 146.804 482.842 147.537 482.309 148.137C481.776 148.671 481.042 148.937 480.109 148.937ZM480.009 82.7373C478.742 82.7373 477.642 82.3039 476.709 81.4373C475.842 80.504 475.409 79.3706 475.409 78.0373C475.409 76.5039 475.876 75.3706 476.809 74.6373C477.809 73.8373 478.909 73.4373 480.109 73.4373C481.242 73.4373 482.276 73.8373 483.209 74.6373C484.209 75.3706 484.709 76.5039 484.709 78.0373C484.709 79.3706 484.242 80.504 483.309 81.4373C482.442 82.3039 481.342 82.7373 480.009 82.7373ZM528.136 149.537C522.803 149.537 518.003 148.337 513.736 145.937C509.536 143.471 506.203 140.137 503.736 135.937C501.336 131.671 500.136 126.904 500.136 121.637C500.136 116.304 501.336 111.537 503.736 107.337C506.203 103.071 509.536 99.7373 513.736 97.3373C518.003 94.8706 522.803 93.6373 528.136 93.6373C533.47 93.6373 538.236 94.8706 542.436 97.3373C546.636 99.7373 549.936 103.071 552.336 107.337C554.803 111.537 556.036 116.304 556.036 121.637C556.036 126.904 554.803 131.671 552.336 135.937C549.936 140.137 546.636 143.471 542.436 145.937C538.236 148.337 533.47 149.537 528.136 149.537ZM528.136 143.937C532.336 143.937 536.07 142.971 539.336 141.037C542.67 139.037 545.27 136.371 547.136 133.037C549.07 129.637 550.036 125.837 550.036 121.637C550.036 117.371 549.07 113.571 547.136 110.237C545.27 106.837 542.67 104.171 539.336 102.237C536.07 100.237 532.336 99.2373 528.136 99.2373C524.003 99.2373 520.27 100.237 516.936 102.237C513.603 104.171 510.97 106.837 509.036 110.237C507.103 113.571 506.136 117.371 506.136 121.637C506.136 125.837 507.103 129.637 509.036 133.037C510.97 136.371 513.603 139.037 516.936 141.037C520.27 142.971 524.003 143.937 528.136 143.937ZM574.007 148.937C573.141 148.937 572.407 148.671 571.807 148.137C571.274 147.537 571.007 146.804 571.007 145.937V97.2373C571.007 96.304 571.274 95.5706 571.807 95.0373C572.407 94.5039 573.141 94.2373 574.007 94.2373C574.941 94.2373 575.674 94.5039 576.207 95.0373C576.741 95.5706 577.007 96.304 577.007 97.2373V102.437C579.207 99.7039 581.941 97.5373 585.207 95.9373C588.541 94.3373 592.141 93.5373 596.007 93.5373C600.807 93.5373 605.107 94.5373 608.907 96.5373C612.774 98.4706 615.807 101.337 618.007 105.137C620.207 108.871 621.307 113.504 621.307 119.037V145.937C621.307 146.804 621.007 147.537 620.407 148.137C619.874 148.671 619.174 148.937 618.307 148.937C617.441 148.937 616.707 148.671 616.107 148.137C615.574 147.537 615.307 146.804 615.307 145.937V119.037C615.307 114.637 614.441 111.004 612.707 108.137C611.041 105.271 608.741 103.137 605.807 101.737C602.941 100.271 599.674 99.5373 596.007 99.5373C592.407 99.5373 589.174 100.237 586.307 101.637C583.441 102.971 581.174 104.837 579.507 107.237C577.841 109.637 577.007 112.337 577.007 115.337V145.937C577.007 146.804 576.741 147.537 576.207 148.137C575.674 148.671 574.941 148.937 574.007 148.937Z" fill="white"/>
<path d="M34.5899 23.11C34.1773 23.6293 34.1478 24.3824 34.5108 24.9547C34.6375 25.1544 34.681 25.2707 34.6349 25.2697C34.5888 25.2686 34.4254 25.3572 34.2689 25.4565C33.2431 26.1072 33.5238 27.6478 34.7141 27.8771C34.9984 27.9314 35.1779 27.916 35.4193 27.831C35.7682 27.7005 35.911 27.5796 36.1248 27.2244L36.2629 27.0005L36.6911 27.6754L37.1192 28.3502L36.2068 28.929L35.2998 29.5044L35.263 29.1719C35.2214 28.7364 35.033 28.4395 34.6411 28.2035C33.7469 27.6653 32.5985 28.3257 32.6103 29.3707C32.6085 29.6065 32.6554 29.7282 32.8677 30.0629L33.1246 30.4679L32.8788 30.5935C32.3743 30.8606 32.0295 31.5941 32.1203 32.2028C32.2106 32.8345 32.7321 33.382 33.3532 33.5256C33.7733 33.615 34.0421 33.5732 34.4622 33.3521L34.8268 33.1511L35.0768 33.5452C35.2994 33.8961 35.3601 33.956 35.6395 34.0741C36.6025 34.4702 37.5926 33.7513 37.5004 32.7346C37.4505 32.2741 37.2852 31.9777 36.9217 31.7389C36.7801 31.647 36.6596 31.5644 36.6527 31.5536C36.6459 31.5428 37.0385 31.2786 37.5298 30.9669L38.4206 30.4018L39.201 31.6558L39.976 32.9132L39.6101 33.327C38.5305 34.5495 37.9912 36.1939 38.1286 37.8785C38.1585 38.2002 38.2295 38.6701 38.2983 38.9217C38.3636 39.168 38.4299 39.4515 38.4509 39.5442C38.4863 39.7791 39.3801 41.2716 39.6127 41.495C40.0799 41.9331 40.5481 42.3251 40.8538 42.5324C41.3501 42.8612 42.2514 43.2435 42.8813 43.389C43.2077 43.4621 43.3871 43.53 43.3175 43.5515C43.2478 43.573 42.9049 43.6769 42.56 43.7897C41.0093 44.2813 39.0026 44.6987 37.2595 44.911C36.7029 44.9764 36.1864 45.0694 36.1108 45.1173C35.8625 45.2749 35.8283 45.8417 36.026 46.5113C36.0391 46.5559 35.9345 46.7132 35.7925 46.8714C35.6506 47.0296 35.2257 47.5414 34.8391 48.0062C33.363 49.8209 32.3935 51.5868 31.883 53.372L31.7346 53.8901L31.0987 54.1648C30.1297 54.5827 28.4281 55.6243 27.5464 56.3351C25.9509 57.6274 24.9023 58.815 23.8107 60.5675C22.3235 62.9496 21.5256 65.7499 21.4812 68.7234C21.4771 69.2182 21.4527 69.8242 21.4313 70.065C21.4133 70.3111 21.4305 70.6485 21.4709 70.8197C21.5114 70.9909 21.5756 71.3666 21.6188 71.6496C22.0088 74.3172 22.6326 75.9809 24.719 79.8666C25.2839 80.9241 25.8375 82.0116 25.943 82.2853C26.329 83.2519 26.7 84.8035 26.8039 85.8505C26.8252 86.0869 26.8646 86.3042 26.892 86.3474C26.916 86.3852 27.1146 86.3879 27.3319 86.3485C27.9499 86.2366 29.584 86.0555 29.6114 86.0987C29.6197 86.1237 29.5455 86.2693 29.4442 86.4319C29.0378 87.0683 28.9487 88.0259 29.2322 88.6638C29.3871 89.0273 29.824 89.3938 30.1422 89.4418C30.6197 89.5023 31.0757 89.1827 31.2383 88.6632C31.2821 88.5294 31.288 88.1925 31.257 87.9169C31.2167 87.5789 31.2328 87.3416 31.3022 87.1765C31.676 86.3336 33.3692 86.3649 36.0429 87.2734C36.6678 87.4827 37.2172 87.6566 37.2633 87.6576C37.3006 87.6567 37.4269 87.7961 37.5331 87.9635C38.0263 88.7409 39.3967 89.1587 40.6068 88.9059C41.0826 88.8085 41.6078 88.4905 41.7719 88.2122C41.8865 88.0108 41.9027 88.0006 42.2696 87.9344C43.0215 87.7829 43.4844 87.7846 43.9868 87.9201C44.5192 88.067 45.3776 88.537 45.8282 88.9251C46.5413 89.5478 47.1908 90.3927 47.1806 90.6869C47.1785 90.7791 47.2165 90.9821 47.2677 91.1465C47.4386 91.6665 48.0001 92.0145 48.4186 91.8626C48.5187 91.8294 48.6094 91.8172 48.6197 91.8334C48.6334 91.855 48.8047 92.0416 48.9932 92.2552C49.1871 92.4653 49.3334 92.6602 49.3221 92.6901C49.2995 92.7499 49.6766 94.8124 49.728 94.8934C49.7451 94.9204 50.2299 95.052 50.7946 95.1783L51.8358 95.4113L52.1839 95.781C52.5027 96.1164 52.5472 96.1866 52.774 96.7469C52.9083 97.0781 53.1303 97.5354 53.2707 97.7568C53.5853 98.2765 53.9904 98.5571 54.6659 98.7267C55.0909 98.8357 55.1566 98.8318 55.3672 98.6983L55.6047 98.5476L55.2407 98.3318C54.5528 97.9277 54.3624 97.3292 54.5786 96.3213C55.3437 92.7771 61.2968 86.502 68.8469 81.2883C78.118 74.8845 89.1087 70.6304 93.3335 71.8118C94.28 72.0745 94.7005 72.5346 94.8738 73.4999C94.8927 73.6014 94.93 73.6005 95.1136 73.484C95.3079 73.3607 95.336 73.2975 95.4052 72.9053C95.4462 72.6597 95.4668 72.2983 95.4465 72.0992C95.4234 71.7883 95.3745 71.6754 95.0957 71.2239C94.9073 70.927 94.5935 70.5279 94.3526 70.2794C93.9595 69.8625 93.9301 69.8282 93.765 69.365L93.5896 68.8857L93.849 67.8504L94.0996 66.8131L93.2149 66.1705C92.73 65.8118 92.2881 65.5091 92.2371 65.4885C92.1807 65.4712 92.0717 65.2754 91.9368 64.9673C91.7344 64.5051 91.7335 64.4678 91.8402 64.2184C92.1034 63.6426 91.8988 63.0455 91.3143 62.697C91.0291 62.522 91.0135 62.5093 90.7494 61.9499C90.2317 60.8473 90.0345 59.8442 90.1243 58.7802C90.1707 58.2208 90.3281 57.8483 90.792 57.1831L91.0578 56.8025L91.3408 56.7592C92.6665 56.5694 93.6994 54.044 92.9425 52.8508C92.7678 52.5755 92.7649 52.547 92.8821 51.5263C93.1548 49.0439 93.6202 47.6054 94.3119 47.0606C94.6948 46.7571 94.9925 46.7727 95.5573 47.1261C96.0331 47.4224 96.3718 47.5028 96.7432 47.396C97.2965 47.2418 97.5542 46.7528 97.3863 46.1778C97.256 45.7456 97.0523 45.4963 96.5521 45.1851C96.1254 44.9183 95.5057 44.7889 94.9863 44.8534C94.796 44.8757 94.6327 44.8809 94.6137 44.8627C94.5863 44.8195 95.4464 43.4183 95.8163 42.9034C95.9392 42.7271 96.0213 42.5462 95.9974 42.5084C95.97 42.4652 95.7902 42.337 95.5854 42.2171C94.6824 41.6769 93.4368 40.6802 92.7269 39.9191C92.5241 39.707 91.7762 38.7428 91.0602 37.7812C88.4339 34.238 87.1946 32.9648 84.9474 31.4753C84.7098 31.3156 84.3972 31.0974 84.2596 30.9879C84.122 30.8783 83.8241 30.719 83.5937 30.6304C83.3668 30.5472 82.8081 30.3111 82.3587 30.104C79.662 28.8846 76.8171 28.4103 74.0446 28.7305C71.9514 28.9757 70.4409 29.4114 68.5669 30.3125C67.5482 30.8073 65.8809 31.9029 65.0899 32.6015L64.5705 33.0598L64.0386 32.9732C62.206 32.6744 60.1953 32.7991 57.9246 33.3613C57.3394 33.5129 56.6953 33.6792 56.4917 33.7403C56.2882 33.8013 56.1013 33.8289 56.0665 33.798C55.5449 33.3339 55.0176 33.1233 54.7639 33.2842C54.6937 33.3287 54.3895 33.7564 54.0932 34.2321C53.1766 35.6995 51.9277 37.3473 50.8203 38.5496C50.5713 38.8135 50.3311 39.0795 50.282 39.1333C50.2329 39.1872 50.2479 38.996 50.3209 38.6695C50.5845 37.4498 50.4661 36.1772 49.9659 34.8515C49.8252 34.4865 48.9311 33.1607 48.7303 33.0232C48.6553 32.9647 48.4271 32.7839 48.2322 32.6199C46.7129 31.3349 44.5098 30.8699 42.6118 31.4228L42.0815 31.5775L41.2742 30.3406L40.4722 29.1003L41.363 28.5352C41.8543 28.2235 42.2607 27.9809 42.2675 27.9917C42.2744 28.0025 42.2992 28.1609 42.3288 28.339C42.3638 28.5969 42.4298 28.7368 42.5884 28.939C43.3642 29.9233 44.9155 29.4087 44.9795 28.149C44.9917 27.846 44.9634 27.7655 44.7408 27.4146L44.4907 27.0205L44.828 26.7763C45.2069 26.4904 45.3593 26.2651 45.4574 25.8469C45.5922 25.2239 45.3102 24.5169 44.7826 24.1626C44.2741 23.8264 43.4581 23.8292 43.007 24.1684L42.7886 24.3373L42.5317 23.9323C42.3125 23.5868 42.2327 23.5087 41.9886 23.3985C41.0389 22.9637 39.9914 23.7115 40.0939 24.7444C40.1404 25.1995 40.3287 25.4964 40.705 25.7196L40.9902 25.8946L40.0831 26.4699L39.1707 27.0488L38.7426 26.3739L38.3145 25.699L38.5813 25.6661C38.9884 25.6274 39.1586 25.5497 39.4253 25.2897C39.605 25.1075 39.6954 24.9517 39.7674 24.6713C40.0672 23.4968 38.7931 22.5864 37.7673 23.2371C37.6107 23.3365 37.461 23.4466 37.4423 23.4887C37.4236 23.5309 37.3472 23.4582 37.2411 23.2908C36.6246 22.319 35.2841 22.223 34.5899 23.11ZM40.3916 48.2848C40.8742 48.5919 40.909 48.6229 40.8514 48.7351C40.7015 49.0119 40.6289 49.3987 40.681 49.6003C40.7215 49.7715 40.7052 49.8652 40.5962 49.9797C40.4724 50.1188 40.4135 50.1335 40.1414 50.0865C39.7968 50.0326 39.4985 50.1233 39.1912 50.3789C38.9526 50.5757 38.8404 50.8285 38.8321 51.1973C38.822 51.4081 38.7866 51.4836 38.6501 51.555C38.5063 51.6386 38.3416 51.6296 38.278 51.5412C38.2506 51.498 38.6611 50.3668 38.9302 49.7646C39.2259 49.0849 39.7643 48.024 39.8291 47.9829C39.8507 47.9692 40.1085 48.101 40.3916 48.2848ZM56.4933 37.8127C57.631 37.78 59.5958 37.8814 59.6574 37.9785C59.7548 38.1439 59.3987 38.5137 59.2543 38.3933C59.2229 38.3678 59.0788 38.3077 58.945 38.2639C58.348 38.0748 57.6919 38.4607 57.5267 39.0955C57.4685 39.3141 57.4356 39.3577 57.2605 39.4158C57.1069 39.4603 57.0153 39.4351 56.8776 39.3256C56.7175 39.1924 56.3366 39.0934 56.0222 39.111C55.8962 39.1153 55.883 39.0706 55.8108 38.5032C55.7651 38.1687 55.7557 37.8794 55.7773 37.8657C55.8043 37.8485 56.1241 37.8274 56.4933 37.8127ZM44.9623 51.7301C47.0439 53.4837 50.2986 56.5374 53.1107 59.3948C54.7873 61.0948 55.2808 61.6222 55.5319 61.9702C55.664 62.1665 55.9084 62.4204 56.0725 62.5358C56.3674 62.7501 57.7883 64.2261 57.7671 64.3001C57.7632 64.3178 57.5596 64.3788 57.3139 64.4211C56.5551 64.5617 56.1043 64.9612 56.0923 65.4913C56.0906 65.6438 56.1464 65.7675 56.3803 66.0885C56.6573 66.4655 56.8468 66.633 57.9122 67.4411C58.1738 67.6386 58.3481 67.8536 58.7949 68.4864C59.2828 69.1838 59.3866 69.2997 59.6438 69.4546C60.001 69.6595 60.3825 69.6522 60.7496 69.4193C61.079 69.2104 61.2924 68.7949 61.3785 68.2027C61.4281 67.8153 61.5771 67.5012 61.7445 67.395C61.8633 67.3197 62.2106 68.5834 62.3036 69.4103C62.4686 70.9713 62.1044 71.9368 61.1455 72.4543C60.3662 72.8729 59.2115 72.7953 57.9913 72.2444C57.6507 72.0894 57.3542 71.9443 57.3405 71.9227C57.3268 71.9011 57.3657 71.8311 57.431 71.7669C57.5891 71.5985 57.7207 71.1137 57.6913 70.7689C57.658 70.3584 57.3224 69.8293 56.9652 69.6244C56.4645 69.3363 55.9142 69.3522 55.4176 69.6673C54.8831 70.0063 54.6612 70.4802 54.7408 71.1188C54.7882 71.5278 54.9727 71.8424 55.295 72.0998C55.7289 72.4378 56.4335 72.4981 56.8865 72.2335C57.0249 72.1532 57.0818 72.1474 57.0734 72.2058C57.0669 72.2553 57.1175 72.5261 57.1892 72.8062C57.5174 74.135 57.4122 75.3299 56.8878 76.1623C56.3393 77.0402 55.2655 77.305 53.7802 76.9449C53.193 76.795 52.373 76.505 52.3216 76.4241C52.3079 76.4025 52.5173 76.0879 52.7968 75.7289C53.206 75.2043 53.2817 75.073 53.2068 75.0145C52.8751 74.7782 50.8938 73.2185 50.8698 73.1807C50.8561 73.1591 51.2536 72.6041 51.7596 71.9575C52.271 71.3075 52.6793 70.7456 52.6818 70.7138C52.676 70.6569 49.5686 68.2291 49.4661 68.2108C49.4362 68.1995 48.9946 68.7446 48.4793 69.4123C47.8376 70.2509 47.5243 70.6162 47.4699 70.5902C47.3312 70.5267 47.2466 70.3457 47.1698 69.9023C46.8608 68.1978 46.9436 66.1918 47.4211 63.8295L47.6408 62.7436L47.1779 62.742C45.1061 62.7464 43.0605 62.3027 41.5983 61.5494C39.7627 60.6013 38.4699 59.0289 37.9425 57.0995L37.823 56.6605L38.0163 56.5833C38.4584 56.4088 40.3401 55.2454 40.8963 54.8093C42.0254 53.9037 43.0489 52.8077 43.789 51.6947C43.9836 51.4046 44.1629 51.1622 44.1933 51.1504C44.2183 51.1421 44.5671 51.4055 44.9623 51.7301ZM57.6546 42.997C58.6233 42.8292 59.6785 42.5233 60.6578 42.1216C61.306 41.8543 61.6382 41.6738 62.6262 41.047C63.2829 40.638 63.969 40.18 64.1517 40.0263L64.4894 39.759L64.8323 40.0488C66.3496 41.3426 67.2213 43.1822 67.2968 45.2467C67.3553 46.8905 66.8851 48.9303 65.9983 50.8027L65.8026 51.2222L66.8786 51.486C69.2192 52.0606 71.0693 52.8405 72.4796 53.8462C72.848 54.1047 72.9758 54.2584 72.9741 54.4109C72.9745 54.4712 72.5104 54.599 71.4784 54.8221C70.6548 55.0039 69.9734 55.1711 69.9709 55.203C69.9438 55.3035 70.8162 59.1492 70.8651 59.1786C70.895 59.19 71.5773 59.06 72.3833 58.8743C73.1838 58.692 73.8553 58.5689 73.869 58.5905C73.8929 58.6283 74.4598 61.0854 74.5323 61.4861C74.5498 61.5734 74.7008 61.5609 75.339 61.421C75.7721 61.328 76.1498 61.255 76.1817 61.2575C76.2631 61.2664 76.1684 62.3107 76.0337 62.9338C75.7498 64.2648 75.0945 65.0818 74.166 65.2771C73.234 65.467 71.9244 65.0258 70.8689 64.1735C70.6494 63.9947 70.4334 63.8213 70.3933 63.7938C70.334 63.7481 70.3581 63.7025 70.4754 63.613C71.0439 63.1842 71.2031 62.2655 70.816 61.6554C70.5181 61.1857 69.8933 60.8931 69.3631 60.9644C69.0232 61.0134 68.5054 61.3192 68.3222 61.5793C68.1349 61.8571 68.0285 62.2502 68.0545 62.5896C68.0877 63.0001 68.4234 63.5291 68.7805 63.7341C69.0799 63.9076 69.5746 63.9951 69.7943 63.9239C69.8802 63.8921 69.967 63.8976 69.9841 63.9246C70.0047 63.957 70.0189 64.266 70.0111 64.6117C69.9888 65.4359 69.7472 66.3918 69.4194 66.9253C69.1854 67.3085 69.1255 67.3692 68.6774 67.6535C68.2563 67.9206 68.14 67.9641 67.8291 67.9872C67.4274 68.0224 66.774 67.8994 66.3349 67.7085C65.6831 67.433 64.7298 66.7657 64.1559 66.1833C63.986 66.011 63.9742 65.9806 64.066 65.9223C64.2496 65.8059 64.4977 65.8151 64.8653 65.9529C65.5426 66.1971 66.1581 66.117 66.5073 65.7365C66.9547 65.2482 66.9179 64.9157 66.2727 63.8032C65.8975 63.1401 65.7827 62.8874 65.71 62.5701C65.4154 61.1746 65.3148 60.8371 65.0927 60.4631C64.9097 60.1627 64.8162 60.063 64.6511 59.9937C64.2085 59.7974 63.6452 60.079 63.1873 60.7178C63.035 60.9432 62.8964 61.1068 62.8827 61.0852C62.7629 60.8962 62.0951 59.0559 62.0582 58.8068C62.0257 58.6003 61.8981 58.2799 61.7059 57.9172C60.7841 56.1776 57.6246 46.8169 56.7534 43.2356C56.7402 43.1909 56.7697 43.1419 56.8178 43.1341C56.8605 43.1298 57.245 43.0676 57.6546 42.997ZM32.0741 60.0349C32.2274 60.551 32.8153 61.9194 33.2809 62.8204C33.5665 63.3661 34.3174 64.6691 34.9622 65.7213C36.2278 67.788 36.6484 68.5585 36.9166 69.3273C37.2814 70.3679 37.5089 71.753 37.4742 72.7366C37.4704 72.9813 37.472 73.2225 37.4832 73.276C37.4993 73.3491 37.9059 73.3335 39.0613 73.2214C40.5439 73.0759 42.4462 72.9594 43.3293 72.967C43.7373 72.9656 43.7496 72.973 44.3545 73.4372C44.6944 73.6986 44.9569 73.9334 44.949 73.9687C44.9377 73.9986 44.5756 74.4781 44.1389 75.0429C43.7042 75.5988 43.291 76.1411 43.2144 76.2351L43.0915 76.4115L44.5419 77.5281C46.3234 78.9042 46.273 78.8605 46.119 78.8445C46.0519 78.8342 45.8556 78.8829 45.6839 78.9464C45.0937 79.1618 44.676 79.8281 44.7364 80.4485C44.8476 81.5667 46.0824 82.1765 47.0218 81.5806L47.308 81.3991L47.4708 81.7274C48.7767 84.4424 48.1692 86.5163 45.9832 86.7824C45.1456 86.8822 43.7415 86.6144 43.3978 86.2874C43.2068 86.1057 43.3109 85.9715 43.8467 85.73C44.8325 85.2788 45.1469 84.8673 45.0715 84.1277C45.0327 83.804 44.9761 83.6431 44.8014 83.3678C44.6027 83.0546 44.5366 82.9982 44.1872 82.8412C43.9711 82.7512 43.5148 82.6167 43.1652 82.5431C42.1005 82.3327 41.424 82.1258 40.4459 81.6939C38.2382 80.7321 37.5165 80.6448 37.0443 81.285C36.642 81.8204 36.7529 82.4012 37.4308 83.3265C37.768 83.7864 37.814 83.8708 37.7306 83.8707C37.2549 83.8847 36.0071 83.7677 35.9694 83.7083C35.8838 83.5734 35.5642 82.1028 35.4471 81.3215C35.3413 80.5936 35.2313 78.9522 35.238 78.0318L35.2361 77.6469L34.5624 77.2414C29.7031 74.3198 27.2696 70.7225 27.5781 66.9C27.6804 65.5933 28.2009 64.0744 28.9366 62.9187C29.6374 61.8154 30.7223 60.6729 31.6062 60.097L32.0185 59.8279L32.0741 60.0349ZM71.2611 35.0846C73.4941 34.1527 76.0397 34.0597 78.1114 34.8428C81.7009 36.1924 83.9184 39.9267 84.491 45.5677L84.5708 46.35L84.9183 46.5157C85.7538 46.9018 87.1919 47.7007 87.8053 48.1066C88.4622 48.5455 89.6564 49.4612 89.7421 49.5961C89.7797 49.6555 89.3539 50.8343 89.1385 51.2586C89.1031 51.3341 89.0463 51.2565 88.7739 50.7555C88.2256 49.748 87.7475 49.4001 87.0917 49.536C86.3113 49.6904 86.0828 50.3805 86.0103 52.7964C85.9823 53.8742 85.8981 54.4576 85.6351 55.5708C85.4398 56.361 85.4125 56.9386 85.5557 57.2718C85.7933 57.8253 86.5433 58.3034 87.0613 58.2247C87.3762 58.184 87.7948 57.9487 88.2705 57.5409C88.9524 56.9569 89.1667 57.3661 88.828 58.6107C88.3089 60.5376 87.1784 61.429 85.6945 61.0831C84.8935 60.8947 83.8168 60.1164 83.0718 59.1807L82.8217 58.87L83.1132 58.685C84.0526 58.0891 84.0217 56.7155 83.0575 56.1385C82.5219 55.8195 81.7412 55.9135 81.2948 56.3557C81.1642 56.4839 81.0364 56.6407 81.0172 56.7059C80.966 56.8519 80.9841 56.9162 80.4983 54.7182L80.1061 52.9302L79.8942 52.9662C79.7765 52.9955 79.1153 53.1348 78.4217 53.2947C77.73 53.4457 77.1365 53.5723 77.1046 53.5698C77.0693 53.562 76.9688 53.2244 76.8772 52.8055C76.715 52.0604 76.7135 52.0462 76.8886 51.6777C77.258 50.8755 78.1739 49.2042 78.9373 47.9249C79.531 46.9274 79.7184 46.5662 79.6591 46.5205C79.6155 46.4876 79.3979 46.3834 79.175 46.2825C78.2703 45.8948 77.1142 45.0988 76.3282 44.3254C75.747 43.7552 75.2292 43.0464 73.8987 41.0208C73.2215 39.9891 72.3627 38.7546 71.9907 38.2637C71.374 37.4587 70.3865 36.3436 69.9849 35.9851L69.8213 35.8466L70.1938 35.6103C70.3936 35.4835 70.8779 35.2444 71.2611 35.0846ZM49.4899 77.4027C50.1105 77.8798 50.6508 78.3017 50.6875 78.3239C50.7345 78.3622 50.8853 78.206 51.2233 77.772C51.9233 76.8584 51.8247 76.9059 52.0643 77.3671C52.8658 78.9409 52.7225 80.4098 51.7049 81.1689C50.8444 81.8057 49.5542 81.8367 48.0275 81.2682L47.5614 81.0944L47.6586 80.7224C47.8523 80.0013 47.5223 79.3021 46.8328 78.9672C46.6397 78.8776 46.4874 78.7926 46.4859 78.7784C46.542 78.6519 48.2633 76.5076 48.3074 76.5174C48.3393 76.5199 48.8712 76.9169 49.4899 77.4027ZM79.587 57.28C80.2109 57.1416 80.753 57.0174 80.801 57.0096C80.8599 56.995 80.8711 57.0484 80.8415 57.1808C80.729 57.6837 81.034 58.3913 81.4955 58.6891C81.6248 58.7736 81.8905 58.8701 82.0866 58.9047L82.4488 58.9626L82.3926 59.5662C82.2978 60.6939 81.9843 61.5364 81.4268 62.1853C80.3025 63.5043 78.4915 63.1918 77.1474 61.455C76.8322 61.0416 76.7473 61.1107 77.872 60.8666C78.4087 60.7457 78.6142 60.6759 78.5996 60.617C78.2522 59.043 77.9642 57.7416 77.9687 57.7009C77.9624 57.6671 78.0752 57.6182 78.216 57.5895C78.348 57.5588 78.9719 57.4204 79.587 57.28Z" fill="white"/>
</svg>
