<svg width="501" height="101" viewBox="0 0 501 101" fill="none" xmlns="http://www.w3.org/2000/svg">
<rect x="0.294434" y="0.246338" width="500" height="100" rx="40" fill="#892CDC"/>
<path d="M212.69 60.2463H215.33V46.8063H231.17V60.2463H233.81V31.9263H231.17V44.4063H215.33V31.9263H212.69V60.2463ZM239.837 51.0063C239.837 56.6463 243.877 60.7263 249.557 60.7263C255.237 60.7263 259.277 56.6463 259.277 51.0063C259.277 45.3663 255.237 41.2863 249.557 41.2863C243.877 41.2863 239.837 45.3663 239.837 51.0063ZM242.237 51.0063C242.237 46.8463 245.037 43.4463 249.557 43.4463C254.077 43.4463 256.877 46.8463 256.877 51.0063C256.877 55.1663 254.077 58.5663 249.557 58.5663C245.037 58.5663 242.237 55.1663 242.237 51.0063ZM262.547 56.9663C263.987 59.5263 266.827 60.7263 269.987 60.7263C273.507 60.7263 276.667 58.8063 276.667 55.0063C276.667 47.5263 265.707 51.4063 265.707 46.4063C265.707 44.4863 267.907 43.4463 269.627 43.4463C271.787 43.4463 273.067 44.3663 273.987 46.0463L276.147 44.7663C274.947 42.4063 272.627 41.2863 269.627 41.2863C266.587 41.2863 263.307 43.0063 263.307 46.6063C263.307 53.6463 274.267 50.0863 274.267 55.1663C274.267 57.2863 272.107 58.5663 270.027 58.5663C267.867 58.5663 265.667 57.4863 264.667 55.5263L262.547 56.9663ZM290.698 41.7663H285.418V36.4463H283.018V41.7663H279.018V43.9263H283.018V55.9663C283.018 58.6063 284.338 60.7263 287.778 60.7263C288.698 60.7263 290.018 60.4063 290.898 60.0863L290.698 57.9263C289.858 58.2863 288.898 58.5663 287.978 58.5663C286.378 58.5663 285.418 57.6063 285.418 55.9663V43.9263H290.698V41.7663Z" fill="white"/>
</svg>
