<svg width="501" height="101" viewBox="0 0 501 101" fill="none" xmlns="http://www.w3.org/2000/svg">
<rect x="0.294434" y="0.871399" width="500" height="100" rx="40" fill="#F4B670"/>
<path d="M228.253 32.5514H225.613V53.1914C225.613 56.6314 224.253 59.1914 220.493 59.1914C218.013 59.1914 216.413 57.9514 215.773 55.3114L213.133 55.7914C213.933 59.2714 216.373 61.5914 220.493 61.5914C227.813 61.5914 228.253 55.9514 228.253 52.5514V32.5514ZM234.31 51.6314C234.31 57.2714 238.35 61.3514 244.03 61.3514C249.71 61.3514 253.75 57.2714 253.75 51.6314C253.75 45.9914 249.71 41.9114 244.03 41.9114C238.35 41.9114 234.31 45.9914 234.31 51.6314ZM236.71 51.6314C236.71 47.4714 239.51 44.0714 244.03 44.0714C248.55 44.0714 251.35 47.4714 251.35 51.6314C251.35 55.7914 248.55 59.1914 244.03 59.1914C239.51 59.1914 236.71 55.7914 236.71 51.6314ZM259.5 60.8714H261.9V42.3914H259.5V60.8714ZM258.9 35.0714C258.9 36.0714 259.7 36.8714 260.7 36.8714C261.7 36.8714 262.5 36.0714 262.5 35.0714C262.5 34.0714 261.7 33.2714 260.7 33.2714C259.7 33.2714 258.9 34.0714 258.9 35.0714ZM268.709 60.8714H271.109V51.6314C271.109 46.5514 273.949 44.0714 277.509 44.0714C281.309 44.0714 282.149 46.9914 282.149 49.9914V60.8714H284.549V49.8714C284.549 45.8314 283.269 41.9114 277.509 41.9114C274.509 41.9114 272.149 43.5914 271.189 45.6314H271.069C270.989 45.2714 270.949 43.7514 270.909 42.3914H268.509C268.509 43.3514 268.709 46.2314 268.709 47.5914V60.8714Z" fill="white"/>
</svg>
