<svg width="501" height="101" viewBox="0 0 501 101" fill="none" xmlns="http://www.w3.org/2000/svg">
<rect x="0.294312" y="0.0283203" width="500" height="100" rx="40" fill="#F4B670"/>
<path d="M210.949 56.4683C213.149 59.5483 216.429 60.7483 220.149 60.7483C224.749 60.7483 228.949 57.9083 228.949 52.7883C228.949 42.1483 214.349 47.2683 214.349 38.7483C214.349 35.1483 217.309 33.3883 220.709 33.3883C223.149 33.3883 224.909 34.3483 226.229 36.1883L228.509 34.5483C226.589 32.0283 223.869 30.9883 220.789 30.9883C216.029 30.9883 211.709 33.7083 211.709 38.7483C211.709 49.5083 226.309 44.8683 226.309 52.7883C226.309 56.1883 223.509 58.3483 219.949 58.3483C217.149 58.3483 214.869 57.1483 213.469 54.7883L210.949 56.4683ZM243.296 41.5483H238.016V36.2283H235.616V41.5483H231.616V43.7083H235.616V55.7483C235.616 58.3883 236.936 60.5083 240.376 60.5083C241.296 60.5083 242.616 60.1883 243.496 59.8683L243.296 57.7083C242.456 58.0683 241.496 58.3483 240.576 58.3483C238.976 58.3483 238.016 57.3883 238.016 55.7483V43.7083H243.296V41.5483ZM261.936 47.7483C261.936 43.0683 259.056 41.0683 254.576 41.0683C252.176 41.0683 249.296 41.9883 247.536 43.6683L248.936 45.3083C250.576 43.9083 252.416 43.2283 254.576 43.2283C257.536 43.2283 259.776 44.5083 259.776 47.7083V48.8283H256.976C253.336 48.8283 246.736 49.3883 246.736 55.0283C246.736 58.9483 250.096 60.5083 253.256 60.5083C256.376 60.5083 258.376 59.3883 259.736 57.0283H259.816C259.816 58.0683 259.896 59.1083 260.056 60.0283H262.296C262.016 57.9083 261.936 55.8683 261.936 52.2683V47.7483ZM259.776 50.7483V51.9883C259.776 55.0683 258.456 58.3483 253.336 58.3483C251.336 58.3483 249.136 57.1883 249.136 54.9083C249.136 51.7483 253.136 50.7483 257.136 50.7483H259.776ZM268.319 60.0283H270.719V49.9483C270.719 46.3483 272.599 43.4683 276.759 43.4683C276.999 43.4683 277.319 43.5083 277.679 43.6283L277.959 41.2683C277.479 41.1483 277.039 41.0683 276.559 41.0683C273.799 41.0683 271.879 42.6283 270.679 44.7883C270.599 44.4283 270.559 42.9083 270.519 41.5483H268.119C268.119 42.5083 268.319 45.3883 268.319 46.7483V60.0283ZM290.679 41.5483H285.399V36.2283H282.999V41.5483H278.999V43.7083H282.999V55.7483C282.999 58.3883 284.319 60.5083 287.759 60.5083C288.679 60.5083 289.999 60.1883 290.879 59.8683L290.679 57.7083C289.839 58.0683 288.879 58.3483 287.959 58.3483C286.359 58.3483 285.399 57.3883 285.399 55.7483V43.7083H290.679V41.5483Z" fill="white"/>
</svg>
