<svg width="54" height="49" viewBox="0 0 54 49" fill="none" xmlns="http://www.w3.org/2000/svg">
<ellipse cx="27.1244" cy="25.818" rx="14.682" ry="21.3212" fill="black"/>
<ellipse cx="27.1244" cy="25.818" rx="14.682" ry="21.3212" fill="black"/>
<ellipse cx="27.1244" cy="25.818" rx="14.682" ry="21.3212" fill="black"/>
<ellipse cx="27.1244" cy="25.818" rx="14.682" ry="21.3212" fill="black"/>
<path d="M27 43.8829L50.3827 47.7207H3.61731L27 43.8829Z" fill="black"/>
<path d="M27 43.8829L50.3827 47.7207H3.61731L27 43.8829Z" fill="black"/>
<path d="M27 43.8829L50.3827 47.7207H3.61731L27 43.8829Z" fill="black"/>
<path d="M27 43.8829L50.3827 47.7207H3.61731L27 43.8829Z" fill="black"/>
<ellipse cx="26.9999" cy="2.24842" rx="3.60829" ry="2.24842" fill="black"/>
<ellipse cx="26.9999" cy="2.24842" rx="3.60829" ry="2.24842" fill="black"/>
<ellipse cx="26.9999" cy="2.24842" rx="3.60829" ry="2.24842" fill="black"/>
<ellipse cx="26.9999" cy="2.24842" rx="3.60829" ry="2.24842" fill="black"/>
</svg>
