<svg width="40" height="42" viewBox="0 0 40 42" fill="none" xmlns="http://www.w3.org/2000/svg">
<rect y="36.3197" width="40" height="5.68033" fill="white"/>
<rect y="36.3197" width="40" height="5.68033" fill="white"/>
<rect y="36.3197" width="40" height="5.68033" fill="white"/>
<rect y="36.3197" width="40" height="5.68033" fill="white"/>
<rect y="36.3197" width="40" height="5.68033" fill="white"/>
<rect y="7.22951" width="40" height="7.22951" fill="white"/>
<rect y="7.22951" width="40" height="7.22951" fill="white"/>
<rect y="7.22951" width="40" height="7.22951" fill="white"/>
<rect y="7.22951" width="40" height="7.22951" fill="white"/>
<rect y="7.22951" width="40" height="7.22951" fill="white"/>
<rect x="14.8955" width="10.3766" height="14.1148" fill="white"/>
<rect x="14.8955" width="10.3766" height="14.1148" fill="white"/>
<rect x="14.8955" width="10.3766" height="14.1148" fill="white"/>
<rect x="14.8955" width="10.3766" height="14.1148" fill="white"/>
<rect x="14.8955" width="10.3766" height="14.1148" fill="white"/>
<rect width="10.3766" height="14.1148" fill="white"/>
<rect width="10.3766" height="14.1148" fill="white"/>
<rect width="10.3766" height="14.1148" fill="white"/>
<rect width="10.3766" height="14.1148" fill="white"/>
<rect width="10.3766" height="14.1148" fill="white"/>
<rect x="29.6235" width="10.3766" height="14.1148" fill="white"/>
<rect x="29.6235" width="10.3766" height="14.1148" fill="white"/>
<rect x="29.6235" width="10.3766" height="14.1148" fill="white"/>
<rect x="29.6235" width="10.3766" height="14.1148" fill="white"/>
<rect x="29.6235" width="10.3766" height="14.1148" fill="white"/>
<rect x="5.52295" y="7.22951" width="29.2887" height="34.7705" fill="white"/>
<rect x="5.52295" y="7.22951" width="29.2887" height="34.7705" fill="white"/>
<rect x="5.52295" y="7.22951" width="29.2887" height="34.7705" fill="white"/>
<rect x="5.52295" y="7.22951" width="29.2887" height="34.7705" fill="white"/>
<rect x="5.52295" y="7.22951" width="29.2887" height="34.7705" fill="white"/>
<rect x="5.52295" y="3.22952" width="29.2887" height="34.7705" fill="white"/>
<rect x="5.52295" y="3.22952" width="29.2887" height="34.7705" fill="white"/>
<rect x="5.52295" y="3.22952" width="29.2887" height="34.7705" fill="white"/>
<rect x="5.52295" y="3.22952" width="29.2887" height="34.7705" fill="white"/>
<rect x="5.52295" y="3.22952" width="29.2887" height="34.7705" fill="white"/>
</svg>
